<svg width="148" height="28" viewBox="0 0 148 28" fill="none" xmlns="http://www.w3.org/2000/svg">
<path d="M6.79581 24.4999L8.69165 16.3041L2.33331 10.7916L10.7333 10.0624L14 2.33325L17.2666 10.0624L25.6666 10.7916L19.3083 16.3041L21.2041 24.4999L14 20.1541L6.79581 24.4999Z" fill="#FFBC2D"/>
<path d="M36.7958 24.4999L38.6916 16.3041L32.3333 10.7916L40.7333 10.0624L44 2.33325L47.2666 10.0624L55.6666 10.7916L49.3083 16.3041L51.2041 24.4999L44 20.1541L36.7958 24.4999Z" fill="#FFBC2D"/>
<path d="M66.7958 24.4999L68.6916 16.3041L62.3333 10.7916L70.7333 10.0624L74 2.33325L77.2666 10.0624L85.6666 10.7916L79.3083 16.3041L81.2041 24.4999L74 20.1541L66.7958 24.4999Z" fill="#FFBC2D"/>
<path d="M96.7958 24.4999L98.6916 16.3041L92.3333 10.7916L100.733 10.0624L104 2.33325L107.267 10.0624L115.667 10.7916L109.308 16.3041L111.204 24.4999L104 20.1541L96.7958 24.4999Z" fill="#FFBC2D"/>
<path d="M126.796 24.4999L128.692 16.3041L122.333 10.7916L130.733 10.0624L134 2.33325L137.267 10.0624L145.667 10.7916L139.308 16.3041L141.204 24.4999L134 20.1541L126.796 24.4999Z" fill="#FFBC2D"/>
</svg>
