<svg width="50" height="50" viewBox="0 0 50 50" fill="none" xmlns="http://www.w3.org/2000/svg">
<path d="M45.1255 29.8745C47.8176 18.7595 40.9895 7.56664 29.8745 4.87452C18.7595 2.1824 7.56663 9.0105 4.87451 20.1255C2.18239 31.2405 9.01048 42.4334 20.1255 45.1255C31.2405 47.8176 42.4334 40.9895 45.1255 29.8745Z" fill="#FFD9BA"/>
<mask id="mask0_7075_1859" style="mask-type:luminance" maskUnits="userSpaceOnUse" x="4" y="4" width="42" height="42">
<path d="M45.1255 29.8745C47.8176 18.7595 40.9895 7.56664 29.8745 4.87452C18.7595 2.1824 7.56663 9.0105 4.87451 20.1255C2.18239 31.2405 9.01048 42.4334 20.1255 45.1255C31.2405 47.8176 42.4334 40.9895 45.1255 29.8745Z" fill="white"/>
</mask>
<g mask="url(#mask0_7075_1859)">
<path d="M38.9712 43.0473C38.3007 41.26 36.2504 38.9124 32.2796 38.2898L24.8786 36.8369L17.4775 38.2898C13.5064 38.9124 11.4565 41.26 10.7859 43.0473L9.23486 50.0499H16.0265H16.5227H24.8786H33.2344H33.7307H40.5223L38.9712 43.0473Z" fill="#D3445B"/>
<path d="M17.2461 38.3665L25.2723 36.7393L32.7616 38.3441L32.5953 38.4635C28.0191 41.7568 21.8597 41.607 17.2461 38.3665Z" fill="#966050"/>
<path d="M20.8759 26.4928C20.9221 27.6882 19.9904 28.695 18.7949 28.7412C17.5995 28.7873 16.5927 27.8556 16.5466 26.6602C16.5004 25.4648 17.4321 24.458 18.6276 24.4118C19.8233 24.3653 20.8298 25.297 20.8759 26.4928Z" fill="#7C483D"/>
<path d="M17.4775 26.2848C17.4775 26.2848 18.3345 25.8563 19.171 27.3443" stroke="black" stroke-width="0.6612" stroke-miterlimit="10" stroke-linecap="round" stroke-linejoin="round"/>
<path d="M28.7848 26.473C28.7972 27.6695 29.7769 28.629 30.9734 28.6169C32.17 28.6045 33.1295 27.6248 33.1174 26.4283C33.105 25.2318 32.1253 24.2722 30.9288 24.2843C29.7323 24.2967 28.7727 25.2768 28.7848 26.473Z" fill="#7C483D"/>
<path d="M32.169 26.0992C32.169 26.0992 31.2922 25.7132 30.5293 27.2404" stroke="black" stroke-width="0.6612" stroke-miterlimit="10" stroke-linecap="round" stroke-linejoin="round"/>
<path d="M24.7769 28.196C28.8916 28.1537 32.1953 25.0058 32.1557 21.165C32.1161 17.3243 28.7484 14.2451 24.6336 14.2875C20.5188 14.3299 17.2152 17.4778 17.2547 21.3185C17.2943 25.1593 20.6621 28.2384 24.7769 28.196Z" fill="black"/>
<path d="M26.9647 30.8159C26.9647 30.8159 26.0366 31.6861 25.1843 31.9062C24.3321 32.1263 23.4938 31.488 23.4828 31.4799C23.4722 31.4722 22.476 30.7412 22.476 30.7412L22.1489 37.8749L22.261 37.9928C23.7282 39.5365 25.8176 39.5369 27.2653 37.9928L27.477 37.7669L26.9647 30.8159Z" fill="#966050"/>
<path d="M21.7925 29.8066C21.7925 29.8066 23.0373 33.9602 25.1821 33.8972C26.9452 33.8456 27.3942 29.9561 27.3942 29.9561L21.7925 29.8066Z" fill="#1E0B02"/>
<path d="M30.6365 22.4029C30.6724 24.7461 30.3542 26.774 30.0267 28.2145C29.7066 29.6249 28.7599 30.6218 27.4125 31.433L27.1671 31.5806C25.7417 32.4391 23.8837 32.4871 22.4111 31.7037C20.926 30.9133 19.8781 29.8578 19.5375 28.3547C18.9182 25.6211 18.8083 22.5846 18.8083 22.5846C18.8083 22.5846 18.2491 16.2508 24.6294 16.2676C31.0105 16.2848 30.6365 22.4029 30.6365 22.4029Z" fill="#966050"/>
<path d="M24.2432 25.709L24.2527 26.625L24.8786 26.6184" stroke="#684138" stroke-miterlimit="10" stroke-linecap="round" stroke-linejoin="round"/>
<path d="M19.8765 22.4611L23.2463 22.1223C23.2463 22.1223 22.9353 21.2514 21.5729 21.4074C20.1793 21.5663 19.8765 22.4611 19.8765 22.4611Z" fill="black"/>
<path d="M29.1485 22.3652L25.7725 22.0961C25.7725 22.0961 26.0655 21.2189 27.4304 21.3467C28.8273 21.4775 29.1485 22.3652 29.1485 22.3652Z" fill="black"/>
<path d="M22.5178 24.4856C22.5207 24.7709 22.2919 25.0041 22.0069 25.0071C21.722 25.01 21.4883 24.7811 21.4854 24.4962C21.4824 24.2109 21.711 23.9776 21.9963 23.9746C22.2812 23.9717 22.5149 24.2006 22.5178 24.4856Z" fill="#1E0B02"/>
<path d="M27.5823 24.4338C27.5852 24.7191 27.3563 24.9524 27.0714 24.9553C26.7861 24.9582 26.5528 24.7293 26.5498 24.4444C26.5469 24.1591 26.7754 23.9258 27.0607 23.9229C27.3457 23.9199 27.5793 24.1488 27.5823 24.4338Z" fill="#1E0B02"/>
<path d="M22.6865 27.9408C22.6865 27.9408 24.1281 28.707 26.4317 27.9023" stroke="black" stroke-width="0.6612" stroke-miterlimit="10" stroke-linecap="round" stroke-linejoin="round"/>
<path d="M30.6216 20.9624C30.6216 20.9624 21.2362 21.4111 21.5754 15.9009C21.5754 15.9009 29.7335 13.4977 30.6216 20.9624Z" fill="black"/>
<path d="M18.6539 21.0908C18.6539 21.0908 21.938 19.6763 21.9032 16.2959C21.9032 16.2959 18.5261 16.7204 18.6539 21.0908Z" fill="black"/>
<path d="M24.481 15.1436C26.9056 15.1436 28.8711 13.1781 28.8711 10.7534C28.8711 8.32882 26.9056 6.36328 24.481 6.36328C22.0564 6.36328 20.0908 8.32882 20.0908 10.7534C20.0908 13.1781 22.0564 15.1436 24.481 15.1436Z" fill="black"/>
<path d="M24.3017 13.5393C24.3017 14.9017 23.1352 16.0063 21.6963 16.0063C20.2573 16.0063 19.0908 14.9017 19.0908 13.5393C19.0908 12.1769 20.2573 11.0723 21.6963 11.0723C23.1352 11.0723 24.3017 12.1769 24.3017 13.5393Z" fill="black"/>
<path d="M27.8122 16.4672C29.0962 16.4672 30.1371 15.4263 30.1371 14.1423C30.1371 12.8583 29.0962 11.8174 27.8122 11.8174C26.5282 11.8174 25.4873 12.8583 25.4873 14.1423C25.4873 15.4263 26.5282 16.4672 27.8122 16.4672Z" fill="black"/>
</g>
</svg>
