<svg width="80" height="80" viewBox="0 0 80 80" fill="none" xmlns="http://www.w3.org/2000/svg">
<rect width="80" height="80" rx="5" fill="#173B6F" fill-opacity="0.15"/>
<g clip-path="url(#clip0_63_134)">
<path d="M43.6133 44.5898C43.9084 45.0386 44.1037 45.492 44.2603 46.0059C44.2809 46.073 44.3016 46.1401 44.3229 46.2092C44.5254 46.898 44.6262 47.585 44.6875 48.3008C44.6946 48.3815 44.7016 48.4622 44.7089 48.5453C44.7312 49.0364 44.6334 49.1903 44.3946 49.668C45.3936 49.668 46.3926 49.668 47.4219 49.668C47.2769 49.5229 47.2769 49.5229 47.1289 49.375C47.0719 49.1616 47.0719 49.1616 47.0431 48.9142C47.0318 48.8236 47.0205 48.733 47.0088 48.6397C46.9981 48.544 46.9874 48.4482 46.9763 48.3496C46.9526 48.1544 46.9287 47.9592 46.9046 47.7641C46.8932 47.6708 46.8818 47.5775 46.8701 47.4814C46.8194 47.1027 46.7424 46.7311 46.654 46.3595C46.6363 46.0842 46.7148 45.9092 46.836 45.6641C47.1287 45.3714 47.4015 45.2902 47.8125 45.2734C48.2286 45.4476 48.388 45.6625 48.5938 46.0547C48.887 47.0334 49.113 48.1558 48.9844 49.1797C48.8394 49.4214 48.8394 49.4214 48.6914 49.668C54.0733 49.7002 59.4551 49.7324 65 49.7656C65 59.2702 65 59.2702 62.0337 62.3328C60.1707 64.1498 57.7591 65.0303 55.1817 65.0284C55.0539 65.029 54.9261 65.0297 54.7944 65.0304C54.4467 65.0321 54.099 65.0325 53.7513 65.0327C53.533 65.0328 53.3148 65.0332 53.0965 65.0337C52.3321 65.0355 51.5678 65.0363 50.8034 65.0362C50.0957 65.0361 49.3881 65.0381 48.6804 65.0412C48.069 65.0438 47.4575 65.0448 46.8461 65.0447C46.4826 65.0446 46.1192 65.0452 45.7558 65.0473C42.4089 65.0652 39.8053 64.4255 37.3145 62.0642C35.5421 60.2517 34.5842 57.7787 34.6099 55.2546C34.6101 55.1499 34.6104 55.0452 34.6107 54.9373C34.6118 54.6071 34.6142 54.2768 34.6167 53.9465C34.6177 53.7209 34.6186 53.4953 34.6194 53.2696C34.6215 52.7201 34.6248 52.1706 34.6289 51.6211C33.797 51.6225 32.9651 51.6266 32.1331 51.634C31.7468 51.6373 31.3605 51.6398 30.9742 51.6402C30.6012 51.6406 30.2283 51.6434 29.8553 51.6478C29.7132 51.6491 29.571 51.6495 29.4289 51.649C29.2294 51.6486 29.0302 51.6511 28.8307 51.6544C28.7173 51.655 28.6039 51.6557 28.487 51.6563C28.0926 51.7375 27.9621 51.9127 27.6953 52.207C27.2303 52.5958 26.7288 52.5427 26.151 52.541C26.0446 52.5418 25.9381 52.5427 25.8285 52.5435C25.4766 52.5458 25.1248 52.5459 24.7729 52.5458C24.5281 52.5465 24.2832 52.5472 24.0384 52.548C23.525 52.5493 23.0117 52.5495 22.4984 52.5489C21.9064 52.5483 21.3145 52.5505 20.7226 52.5541C20.1517 52.5575 19.5808 52.5581 19.0099 52.5577C18.7677 52.5579 18.5254 52.5588 18.2832 52.5606C17.9441 52.5627 17.605 52.5618 17.2658 52.5601C17.1662 52.5614 17.0666 52.5627 16.964 52.564C16.3218 52.5565 15.884 52.4344 15.3906 52.0117C14.9766 51.5045 14.9441 51.0778 14.9691 50.4301C15.0277 49.9106 15.201 49.6583 15.5738 49.3018C16.177 48.8674 16.6643 48.8577 17.3874 48.8583C17.49 48.8577 17.5927 48.857 17.6984 48.8564C18.0376 48.8545 18.3767 48.8541 18.7159 48.8539C18.952 48.8533 19.1881 48.8526 19.4242 48.8519C19.9191 48.8508 20.414 48.8504 20.909 48.8505C21.5424 48.8505 22.1758 48.8479 22.8092 48.8445C23.2969 48.8423 23.7846 48.8419 24.2723 48.8421C24.5058 48.8418 24.7393 48.841 24.9727 48.8394C25.2997 48.8375 25.6267 48.8381 25.9537 48.8393C26.0496 48.8382 26.1456 48.8371 26.2444 48.8359C26.8392 48.8414 27.3013 48.9285 27.793 49.2773C27.852 49.3453 27.9111 49.4133 27.972 49.4833C28.2554 49.7306 28.4213 49.7162 28.7941 49.7149C28.9823 49.7157 28.9823 49.7157 29.1742 49.7166C29.313 49.7152 29.4518 49.7138 29.5906 49.7123C29.7369 49.7122 29.8832 49.7123 30.0295 49.7125C30.4265 49.7126 30.8236 49.7103 31.2206 49.7076C31.6356 49.7051 32.0506 49.7049 32.4656 49.7044C33.2513 49.7032 34.0371 49.7 34.8229 49.6961C35.7175 49.6917 36.6121 49.6896 37.5067 49.6876C39.3469 49.6835 41.1871 49.6767 43.0274 49.668C42.9629 49.5713 42.8985 49.4746 42.8321 49.375C42.7907 49.1693 42.7907 49.1693 42.7661 48.9314C42.756 48.8433 42.7459 48.7552 42.7355 48.6645C42.725 48.5707 42.7146 48.4768 42.7039 48.3801C42.6023 47.5412 42.4326 46.782 42.1473 45.9875C42.0326 45.6029 41.9547 45.2659 42.1439 44.8962C42.3214 44.6978 42.4858 44.5206 42.7222 44.3945C43.0631 44.3945 43.2986 44.455 43.6133 44.5898ZM36.5821 52.9883C36.0615 54.0294 36.4339 56.3667 36.7579 57.4393C36.9293 57.9285 37.1168 58.3914 37.3633 58.8477C37.4064 58.9283 37.4494 59.009 37.4938 59.0922C38.0179 60.0173 38.7348 61.0881 39.7071 61.582C40.0275 61.6307 40.1685 61.5891 40.4883 61.4844C40.7789 61.2573 40.7825 61.087 40.8484 60.7214C40.8378 60.4598 40.813 60.348 40.6371 60.1511C40.5028 60.0417 40.3671 59.934 40.2304 59.8277C39.0558 58.8145 38.3743 57.2495 38.2422 55.7227C38.2359 55.5139 38.2315 55.3051 38.2285 55.0963C38.2256 54.9244 38.2256 54.9244 38.2228 54.7491C38.2194 54.5104 38.2177 54.2716 38.2174 54.0327C38.2301 53.3443 38.2301 53.3443 37.9176 52.7636C37.3899 52.4285 36.9583 52.4963 36.5821 52.9883ZM42.9297 61.6797C42.7007 62.0233 42.6778 62.1541 42.7344 62.5586C43.0409 62.9215 43.2419 63.1289 43.719 63.1712C44.4519 63.2062 44.4519 63.2062 45.1148 62.9431C45.3142 62.5826 45.3399 62.3788 45.2735 61.9727C45.0166 61.6473 44.8182 61.5036 44.4079 61.4432C44.2967 61.4326 44.1856 61.422 44.0711 61.4111C43.9055 61.3938 43.9055 61.3938 43.7365 61.376C43.3733 61.3882 43.2149 61.4596 42.9297 61.6797Z" fill="#173B6F"/>
<path d="M26.2305 17.5391C26.7196 17.8423 27.1217 18.1977 27.5366 18.595C27.667 18.7183 27.7975 18.8415 27.928 18.9646C28.0204 19.0519 28.0204 19.0519 28.1146 19.1409C28.3614 19.3719 28.6156 19.5936 28.8718 19.8141C29.1178 20.0287 29.3585 20.2487 29.5996 20.4688C29.9042 20.7466 30.2097 21.0227 30.5212 21.2927C30.8542 21.5819 31.1795 21.8791 31.5039 22.1777C32.1413 22.7642 32.7889 23.3355 33.457 23.8867C33.3105 24.4218 32.9357 24.7519 32.5598 25.1379C32.4321 25.2707 32.3046 25.4036 32.1772 25.5366C32.114 25.6026 32.0507 25.6685 31.9856 25.7365C31.7398 25.9983 31.5042 26.268 31.2692 26.5393C31.0584 26.7819 30.842 27.0189 30.625 27.2559C30.3471 27.5605 30.0711 27.866 29.801 28.1775C29.4666 28.5625 29.1216 28.9373 28.7758 29.3121C28.4546 29.6611 28.1416 30.016 27.8357 30.3786C27.6953 30.5273 27.6953 30.5273 27.4023 30.7227C27.3516 30.6744 27.3009 30.6262 27.2486 30.5766C27.1805 30.514 27.1124 30.4514 27.0422 30.387C26.9754 30.3246 26.9085 30.2623 26.8397 30.1981C26.5956 30.0205 26.4313 29.9706 26.1328 29.9414C25.8452 30.015 25.6946 30.073 25.5103 30.3076C25.424 30.6182 25.4525 30.8048 25.5469 31.1133C25.7727 31.3798 25.7727 31.3798 26.0352 31.6016C26.1328 31.6992 26.2305 31.7969 26.3281 31.8945C26.1704 32.2753 25.9102 32.5501 25.6323 32.8467C25.5866 32.8962 25.5409 32.9456 25.4939 32.9966C25.3817 33.1179 25.269 33.2387 25.1562 33.3594C24.8815 33.2335 24.6746 33.0993 24.4559 32.8913C24.3712 32.8116 24.3712 32.8116 24.2849 32.7303C24.226 32.674 24.1671 32.6178 24.1064 32.5598C23.9833 32.4438 23.8601 32.3278 23.7368 32.2119C23.678 32.1565 23.6192 32.1011 23.5586 32.0441C23.3149 31.8166 23.0637 31.5985 22.8114 31.3807C22.5644 31.1648 22.3224 30.9438 22.0801 30.7227C21.7755 30.4448 21.47 30.1688 21.1584 29.8987C20.8255 29.6095 20.5002 29.3123 20.1758 29.0137C19.7882 28.6569 19.3977 28.3045 18.9997 27.9593C18.6403 27.6465 18.2854 27.3287 17.9297 27.0117C18.0782 26.6691 18.2812 26.4304 18.5339 26.1572C18.8038 25.8629 19.0724 25.5683 19.3335 25.2661C19.6706 24.8788 20.0183 24.5014 20.366 24.1237C20.6745 23.7881 20.9772 23.4482 21.2759 23.1039C21.6206 22.7096 21.9733 22.3223 22.3242 21.9336C22.4707 21.7709 22.6172 21.6081 22.7637 21.4453C22.9855 21.1987 23.2075 20.9522 23.4297 20.706C23.7597 20.3403 24.0888 19.9741 24.4116 19.6021C24.7527 19.2099 25.1046 18.828 25.4583 18.4472C25.7292 18.1541 25.9849 17.8536 26.2305 17.5391ZM21.1584 26.1389C20.9035 26.502 20.9043 26.6724 20.957 27.1094C21.1602 27.3989 21.1602 27.3989 21.4453 27.6465C21.4941 27.6923 21.5429 27.7381 21.5932 27.7853C21.7375 27.9199 21.8844 28.0518 22.0312 28.1836C22.1065 28.2531 22.1818 28.3226 22.2594 28.3942C22.8514 28.9403 22.8514 28.9403 23.5938 29.209C23.9973 29.1417 24.1343 28.9975 24.375 28.6719C24.4728 28.3918 24.4728 28.3918 24.375 28.0859C23.8591 27.286 22.917 26.4629 22.1289 25.9375C21.7029 25.8823 21.5139 25.8893 21.1584 26.1389Z" fill="#173B6F"/>
<path d="M34.6289 25.1562C35.072 25.304 35.2837 25.6472 35.5078 26.0352C35.829 26.8459 35.7596 27.5573 35.5017 28.3728C35.2352 29.2464 35.2616 29.9125 35.6828 30.7202C35.8731 31.0392 36.1079 31.3083 36.3562 31.5833C36.4613 31.7027 36.5664 31.8222 36.6713 31.9418C36.7484 32.0292 36.7484 32.0292 36.827 32.1183C37.1021 32.4335 37.363 32.76 37.6257 33.0855C37.7958 33.2917 37.9681 33.4937 38.1445 33.6943C38.1942 33.7513 38.2438 33.8082 38.295 33.8669C38.3921 33.9779 38.4899 34.0883 38.5886 34.1979C38.8572 34.5065 38.9258 34.5935 38.9258 35.0195C38.7576 35.2225 38.7576 35.2225 38.5291 35.4346C38.1809 35.7675 37.8565 36.1065 37.543 36.4718C37.1967 36.8724 36.8394 37.2634 36.4844 37.6562C35.9812 37.4917 35.5755 37.1929 35.1427 36.8967C34.9743 36.783 34.8059 36.6692 34.6375 36.5555C34.3737 36.3767 34.1102 36.1975 33.8468 36.0181C33.5916 35.8443 33.3357 35.6716 33.0798 35.499C33.002 35.4456 32.9243 35.3922 32.8442 35.3372C32.1154 34.8471 31.4242 34.5114 30.5273 34.6289C30.2489 34.7052 29.9878 34.8109 29.7217 34.9219C28.8328 35.2611 28.0043 35.4168 27.0972 35.0317C26.8593 34.9106 26.6488 34.7776 26.4258 34.6289C26.4828 34.3193 26.5692 34.1546 26.7867 33.9285C26.8401 33.8721 26.8936 33.8157 26.9487 33.7575C27.0057 33.6987 27.0628 33.6398 27.1216 33.5791C27.2384 33.4561 27.3551 33.333 27.4718 33.2098C27.5278 33.1511 27.5837 33.0923 27.6414 33.0317C27.873 32.7863 28.0935 32.532 28.3141 32.2768C28.7297 31.7987 29.1582 31.3317 29.5828 30.8615C29.9125 30.496 30.2413 30.1301 30.564 29.7583C30.9011 29.371 31.2488 28.9936 31.5965 28.6159C31.905 28.2802 32.2077 27.9404 32.5064 27.5961C32.9308 27.1106 33.3654 26.634 33.7992 26.1568C33.9168 26.0271 33.9168 26.0271 34.0369 25.8948C34.1082 25.8163 34.1796 25.7379 34.2532 25.6571C34.4466 25.4431 34.4466 25.4431 34.6289 25.1562Z" fill="#173B6F"/>
<path d="M63.1445 15.4883C64.016 15.924 64.4062 17.1029 64.7063 17.98C65.3423 20.179 65.117 22.3912 64.0376 24.4006C62.9986 26.2544 61.3186 27.5814 59.2814 28.1897C58.9749 28.2634 58.6701 28.3259 58.3594 28.3789C58.2874 28.3916 58.2154 28.4043 58.1412 28.4174C56.1174 28.721 54.0813 28.1392 52.4023 27.0117C52.2703 26.8833 52.1398 26.7534 52.0117 26.6211C52.3084 26.3075 52.6083 25.9971 52.9089 25.6873C52.9933 25.5979 53.0777 25.5086 53.1647 25.4166C53.2469 25.3326 53.329 25.2485 53.4136 25.162C53.4888 25.0837 53.564 25.0055 53.6414 24.9249C53.8672 24.7656 53.8672 24.7656 54.1251 24.7828C54.3735 24.8696 54.5943 24.9755 54.8254 25.1013C55.2471 25.3162 55.644 25.475 56.1133 25.5469C56.2115 25.5622 56.3097 25.5776 56.4108 25.5934C57.8508 25.7596 59.1593 25.3592 60.3323 24.5127C61.2811 23.7432 61.9922 22.5641 62.168 21.3477C62.2609 19.8001 61.9924 18.7504 61.2891 17.3438C61.9014 16.7314 62.5137 16.1191 63.1445 15.4883Z" fill="#173B6F"/>
<path d="M23.2481 14.9366C23.7659 15.0689 24.1077 15.5096 24.4727 15.8789C24.5892 15.9803 24.7069 16.0804 24.8267 16.1779C24.9415 16.2716 24.9415 16.2716 25.0586 16.3672C24.6703 16.9072 24.2546 17.4003 23.7952 17.8808C23.6735 18.0096 23.552 18.1384 23.4305 18.2673C23.3735 18.3276 23.3166 18.388 23.2579 18.4502C23.0302 18.6937 22.8121 18.9447 22.5947 19.1973C22.3624 19.4624 22.1235 19.7212 21.8848 19.9804C21.5289 20.367 21.1778 20.757 20.8334 21.1538C20.4888 21.5482 20.1361 21.9354 19.7852 22.3242C19.6386 22.4869 19.4922 22.6497 19.3457 22.8125C19.1239 23.0591 18.9019 23.3055 18.6797 23.5518C18.0288 24.2733 17.3889 25.0033 16.7578 25.7422C16.4503 25.6851 16.2822 25.5986 16.0548 25.3855C15.9992 25.3338 15.9436 25.2821 15.8863 25.2289C15.8295 25.1747 15.7727 25.1205 15.7141 25.0647C15.6561 25.0108 15.5982 24.957 15.5384 24.9016C15.0192 24.4143 15.0192 24.4143 14.9512 23.9294C14.9646 23.3512 15.3089 23.0273 15.6836 22.6172C15.7318 22.5644 15.7799 22.5117 15.8296 22.4574C16.102 22.1601 16.3767 21.865 16.6529 21.5712C16.9315 21.2744 17.201 20.971 17.467 20.6629C17.6829 20.4159 17.9039 20.1739 18.125 19.9316C18.4029 19.627 18.6789 19.3215 18.949 19.01C19.2382 18.677 19.5353 18.3517 19.834 18.0273C20.1892 17.6414 20.5399 17.2523 20.8834 16.8558C21.1605 16.5392 21.4442 16.2286 21.7272 15.9174C21.869 15.7568 22.0054 15.5913 22.1369 15.4223C22.469 15.0199 22.7471 14.9285 23.2481 14.9366Z" fill="#173B6F"/>
<path d="M59.2566 36.4416C59.5677 36.6884 59.6991 37.0719 59.7537 37.4575C59.7644 37.6678 59.7662 37.8763 59.7645 38.0869C59.765 38.1661 59.7655 38.2453 59.766 38.3268C59.7673 38.5866 59.7665 38.8464 59.7655 39.1062C59.7657 39.2877 59.766 39.4693 59.7663 39.6508C59.7668 40.0304 59.7661 40.4101 59.7648 40.7897C59.7631 41.2756 59.7641 41.7615 59.7658 42.2474C59.7669 42.6219 59.7665 42.9965 59.7658 43.3711C59.7656 43.5502 59.7658 43.7293 59.7665 43.9085C59.7672 44.159 59.7661 44.4095 59.7645 44.66C59.7651 44.7336 59.7657 44.8071 59.7663 44.8828C59.7607 45.3448 59.6825 45.6644 59.4336 46.0547C59.0749 46.2938 58.7761 46.3312 58.3594 46.25C58.045 46.0025 57.9 45.8483 57.7734 45.4687C57.763 45.2094 57.7581 44.9526 57.7577 44.6933C57.757 44.5749 57.757 44.5749 57.7562 44.454C57.7548 44.1926 57.7541 43.9312 57.7536 43.6697C57.753 43.4879 57.7525 43.306 57.7519 43.1241C57.7509 42.7426 57.7503 42.361 57.75 41.9794C57.7494 41.4913 57.7471 41.0033 57.7443 40.5152C57.7425 40.1394 57.742 39.7636 57.7418 39.3877C57.7415 39.2079 57.7408 39.028 57.7395 38.8481C57.7378 38.5959 57.738 38.3438 57.7386 38.0916C57.7377 38.0178 57.7368 37.944 57.7359 37.868C57.7398 37.3708 57.8363 37.0247 58.0664 36.582C58.4175 36.3036 58.8369 36.3337 59.2566 36.4416Z" fill="#173B6F"/>
<path d="M63.5352 36.3868C64.0775 36.7259 64.0775 36.7259 64.1753 37.0605C64.1968 37.2883 64.1992 37.5097 64.1954 37.7385C64.1962 37.8245 64.1971 37.9104 64.198 37.999C64.2001 38.2826 64.1979 38.5659 64.1955 38.8495C64.1956 39.0469 64.196 39.2443 64.1965 39.4416C64.1969 39.8551 64.1953 40.2684 64.1921 40.6819C64.1882 41.2116 64.1891 41.7412 64.1916 42.2709C64.1929 42.6784 64.192 43.0859 64.1902 43.4934C64.1897 43.6887 64.1898 43.884 64.1906 44.0793C64.1914 44.3524 64.189 44.6252 64.1858 44.8983C64.1867 44.9789 64.1875 45.0594 64.1884 45.1425C64.1799 45.5599 64.1575 45.716 63.8882 46.0541C63.6183 46.2612 63.4825 46.3392 63.1445 46.3477C62.8087 46.2517 62.5824 46.1333 62.3633 45.8594C62.2406 45.4913 62.2496 45.1462 62.2483 44.7626C62.2477 44.6806 62.2471 44.5986 62.2464 44.5142C62.2445 44.2428 62.2433 43.9713 62.2424 43.6999C62.242 43.6072 62.2416 43.5144 62.2412 43.4189C62.2391 42.9281 62.2377 42.4374 62.2368 41.9466C62.2357 41.4399 62.2324 40.9332 62.2285 40.4266C62.2259 40.0367 62.2251 39.6469 62.2248 39.2571C62.2243 39.0703 62.2232 38.8835 62.2213 38.6968C62.219 38.4352 62.2191 38.1737 62.2197 37.9121C62.2185 37.8353 62.2172 37.7584 62.2159 37.6792C62.2207 37.1751 62.3173 36.8808 62.6563 36.4844C62.9867 36.3743 63.1886 36.346 63.5352 36.3868Z" fill="#173B6F"/>
<path d="M54.7461 37.3633C54.9725 37.548 55.1044 37.6893 55.2344 37.9492C55.245 38.188 55.2497 38.424 55.2501 38.6629C55.2506 38.7364 55.2511 38.81 55.2516 38.8857C55.253 39.1296 55.2537 39.3735 55.2542 39.6174C55.2548 39.7867 55.2553 39.956 55.2559 40.1254C55.2569 40.4808 55.2575 40.8362 55.2578 41.1915C55.2584 41.6467 55.2607 42.1018 55.2635 42.557C55.2653 42.9069 55.2658 43.2568 55.266 43.6068C55.2663 43.7745 55.267 43.9423 55.2683 44.1101C55.27 44.345 55.2698 44.5799 55.2692 44.8148C55.2701 44.884 55.271 44.9532 55.2719 45.0244C55.2673 45.5652 55.1241 45.872 54.7461 46.25C54.3992 46.3789 54.2549 46.3467 53.8977 46.2256C53.5742 46.0547 53.5742 46.0547 53.3789 45.7617C53.3589 45.5077 53.3502 45.2641 53.3505 45.0101C53.3499 44.9337 53.3492 44.8573 53.3485 44.7785C53.3467 44.5257 53.3463 44.2728 53.3461 44.0199C53.3455 43.8442 53.3448 43.6684 53.3441 43.4927C53.3429 43.1241 53.3426 42.7555 53.3427 42.3869C53.3427 41.9147 53.3401 41.4427 53.3367 40.9706C53.3345 40.6075 53.3341 40.2444 53.3342 39.8813C53.334 39.7072 53.3331 39.5332 53.3316 39.3592C53.3297 39.1156 53.3303 38.8721 53.3315 38.6285C53.3304 38.5567 53.3293 38.485 53.3281 38.4111C53.3324 38.0611 53.3711 37.864 53.5589 37.565C53.9416 37.1986 54.2521 37.2506 54.7461 37.3633Z" fill="#173B6F"/>
<path d="M60.0195 18.6133C60.5357 19.1103 60.6247 19.713 60.6421 20.4138C60.6097 21.5271 60.2496 22.3963 59.4485 23.1856C58.6225 23.8606 57.7183 24.0498 56.6683 24.024C56.1518 23.9671 55.7036 23.8123 55.2344 23.5938C55.3847 23.2364 55.5997 23.0095 55.8732 22.7374C55.9404 22.6702 55.9404 22.6702 56.0089 22.6016C56.1564 22.4543 56.3046 22.3076 56.4528 22.1609C56.5555 22.0586 56.6581 21.9563 56.7607 21.8539C57.0303 21.585 57.3005 21.3168 57.5708 21.0486C57.8467 20.7747 58.1221 20.5002 58.3975 20.2258C58.9377 19.6877 59.4784 19.1503 60.0195 18.6133Z" fill="#173B6F"/>
<path d="M42.4136 37.4987C42.8604 37.6186 43.1532 37.9686 43.4692 38.2912C43.6265 38.451 43.7873 38.6068 43.9486 38.7625C44.6358 39.4307 45.2771 40.1158 45.8594 40.8789C45.9245 40.9605 45.9245 40.9605 45.9909 41.0438C46.8954 42.1801 46.8954 42.1801 46.9336 42.7405C46.8892 43.0661 46.8123 43.1553 46.5979 43.4302C46.2691 43.6492 45.9809 43.6841 45.595 43.6156C45.1247 43.4057 44.8757 42.9496 44.5899 42.5391C44.4631 42.3752 44.3349 42.2124 44.2053 42.0508C44.1414 41.9707 44.0774 41.8907 44.0116 41.8082C43.7273 41.4641 43.4284 41.1346 43.1273 40.8053C42.9713 40.6321 42.8239 40.4574 42.6795 40.2747C42.4222 39.9778 42.1444 39.7337 41.8425 39.4835C41.563 39.2274 41.3926 39.0091 41.2818 38.645C41.2665 38.2644 41.3596 38.0728 41.5625 37.7539C41.8618 37.5544 42.0539 37.4863 42.4136 37.4987Z" fill="#173B6F"/>
<path d="M63.7305 31.1133C64.2505 31.6542 64.1827 32.1569 64.176 32.8711C64.1784 32.9859 64.1807 33.1007 64.1831 33.219C64.1815 34.1552 64.1815 34.1552 63.888 34.458C63.6126 34.6425 63.476 34.7265 63.1445 34.7265C62.5232 34.5265 62.5232 34.5265 62.3449 34.2606C62.1843 33.8196 62.2337 33.341 62.2351 32.8772C62.2335 32.7712 62.232 32.6653 62.2303 32.5562C62.2303 32.4538 62.2302 32.3514 62.2301 32.2458C62.2299 32.1527 62.2296 32.0595 62.2293 31.9636C62.2808 31.5885 62.4291 31.3164 62.7234 31.0766C63.0647 30.9844 63.399 30.9844 63.7305 31.1133Z" fill="#173B6F"/>
<path d="M54.7461 31.9922C55.0205 32.2147 55.1219 32.3385 55.2344 32.6758C55.2594 33.0273 55.2569 33.3793 55.2588 33.7317C55.2608 33.8279 55.2628 33.9241 55.2649 34.0233C55.2677 34.5577 55.2522 34.9529 54.9414 35.4101C54.6421 35.6013 54.4618 35.6056 54.1052 35.5993C53.6944 35.4873 53.6069 35.3723 53.3789 35.0195C53.3009 34.5992 53.32 34.1768 53.324 33.75C53.3216 33.6352 53.3193 33.5204 53.3169 33.4021C53.3185 32.4659 53.3185 32.4659 53.6081 32.1631C54.0235 31.889 54.2698 31.8658 54.7461 31.9922Z" fill="#173B6F"/>
<path d="M40.293 39.8047C40.994 40.2011 41.7042 40.9398 41.9318 41.7296C41.9467 42.1046 41.8993 42.2853 41.6724 42.5879C41.2961 42.8534 41.0487 42.8712 40.5859 42.832C40.1743 42.5542 39.8844 42.208 39.585 41.8188C39.5414 41.7649 39.4978 41.7111 39.453 41.6556C39.1808 41.3042 39.0434 41.0318 39.0234 40.5859C39.2825 39.9124 39.5749 39.7316 40.293 39.8047Z" fill="#173B6F"/>
<path d="M59.2383 31.9921C59.547 32.2277 59.6568 32.3987 59.7265 32.7734C59.7379 32.9501 59.7436 33.1273 59.7449 33.3044C59.7462 33.3949 59.7476 33.4854 59.7491 33.5787C59.7191 33.9365 59.6177 34.2149 59.4092 34.5068C59.1594 34.6852 58.9566 34.7083 58.6523 34.7265C58.3169 34.6329 58.0848 34.5161 57.8711 34.2382C57.7718 33.9294 57.7574 33.6399 57.7551 33.3166C57.7537 33.2261 57.7523 33.1356 57.7509 33.0423C57.7814 32.6782 57.8765 32.3974 58.1091 32.1142C58.4748 31.8217 58.8073 31.8939 59.2383 31.9921Z" fill="#173B6F"/>
</g>
<defs>
<clipPath id="clip0_63_134">
<rect width="50" height="50" fill="white" transform="translate(15 15)"/>
</clipPath>
</defs>
</svg>
