<svg width="80" height="80" viewBox="0 0 80 80" fill="none" xmlns="http://www.w3.org/2000/svg">
<rect width="80" height="80" rx="5" fill="#173B6F" fill-opacity="0.15"/>
<g clip-path="url(#clip0_63_161)">
<path d="M39.1363 16.2016C39.316 16.3412 39.4935 16.4837 39.6677 16.63C39.8954 16.7873 39.8954 16.7873 40.1465 16.704C40.4078 16.5525 40.6363 16.3843 40.8728 16.1963C42.4584 15.0194 44.3546 14.7726 46.2771 15.0297C48.0767 15.3784 49.5953 16.5218 50.6353 17.9987C51.1371 18.8031 51.4287 19.6698 51.7187 20.5664C51.8297 20.57 51.9408 20.5737 52.0552 20.5774C54.2702 20.6652 56.3186 21.2064 57.8806 22.8773C59.2586 24.5694 59.6885 26.414 59.5312 28.5742C59.4676 28.9746 59.359 29.3511 59.2356 29.7369C59.1426 30.0328 59.0868 30.3184 59.0429 30.625C59.1255 30.6864 59.2081 30.7478 59.2932 30.8111C60.8977 32.0161 62.09 33.4069 62.509 35.4319C62.7738 37.4016 62.4378 39.2856 61.2494 40.9193C60.6292 41.7199 59.8886 42.2851 59.0429 42.832C59.0691 42.9508 59.0953 43.0697 59.1223 43.1921C59.1398 43.2737 59.1573 43.3553 59.1753 43.4393C59.2171 43.6196 59.2641 43.7988 59.3164 43.9764C59.8059 45.7394 59.652 47.621 58.8293 49.2529C57.848 50.9545 56.3733 52.1285 54.4897 52.6892C53.5886 52.885 52.6375 52.8684 51.7187 52.8906C51.6832 52.998 51.6477 53.1054 51.6111 53.216C50.9122 55.2899 49.91 56.8294 47.9345 57.9016C46.25 58.687 44.3944 58.8158 42.6269 58.2317C41.7756 57.921 41.0121 57.4781 40.3109 56.9033C40.1009 56.7702 40.1009 56.7702 39.8661 56.8502C39.5568 57.0212 39.2661 57.2143 38.9746 57.4133C37.4331 58.4319 35.6498 58.811 33.8255 58.4909C32.026 58.1135 30.5148 57.1426 29.4497 55.6383C28.9134 54.7823 28.5758 53.8524 28.2812 52.8906C28.1951 52.8892 28.1951 52.8892 28.1072 52.8878C25.7435 52.8408 23.8238 52.377 22.1113 50.6216C20.7537 49.0474 20.3368 47.2012 20.4409 45.1663C20.4988 44.576 20.6647 44.0203 20.8502 43.4591C20.9719 43.1369 20.9719 43.1369 20.957 42.832C20.7405 42.6421 20.7405 42.6421 20.4626 42.4597C20.364 42.3901 20.2655 42.3205 20.1639 42.2487C20.0711 42.1834 19.9784 42.1181 19.8828 42.0507C18.5589 41.0886 17.7831 39.5462 17.4736 37.966C17.1949 36.1295 17.567 34.3092 18.6132 32.7734C19.2592 31.9044 20.0837 31.2526 20.957 30.625C20.9308 30.5041 20.9046 30.3833 20.8776 30.2588C20.8602 30.1771 20.8427 30.0954 20.8246 30.0112C20.7657 29.7478 20.7657 29.7478 20.6835 29.5023C20.1617 27.7985 20.3875 25.9406 21.1279 24.3445C21.9381 22.8334 23.2998 21.5694 24.9411 21.0203C25.7751 20.7757 26.5738 20.6512 27.4389 20.6091C27.5201 20.6049 27.6013 20.6007 27.685 20.5963C27.8837 20.586 28.0825 20.5762 28.2812 20.5664C28.3226 20.4449 28.364 20.3234 28.4067 20.1983C29.1099 18.1829 30.1478 16.6479 32.0715 15.6103C32.2388 15.5336 32.4078 15.4605 32.5781 15.3906C32.6714 15.3522 32.7647 15.3138 32.8608 15.2742C34.9368 14.5538 37.3692 14.9112 39.1363 16.2016ZM27.6953 25.9375C24.5691 29.4847 23.5192 33.8104 23.6914 38.4375C23.7317 39.0701 23.8307 39.6784 23.9843 40.2929C24.0032 40.3693 24.0221 40.4457 24.0416 40.5244C24.9551 44.0893 26.9651 47.4491 29.9414 49.6679C29.9922 49.7065 30.0429 49.7451 30.0952 49.7848C33.6005 52.4378 37.8943 53.5377 42.2609 53.0104C46.4944 52.3929 50.5064 50.0773 53.0744 46.6376C55.6901 43.0183 56.9086 38.5439 56.1935 34.0967C56.115 33.6844 56.022 33.2776 55.9179 32.8711C55.9002 32.798 55.8824 32.725 55.8641 32.6497C54.8565 28.5743 52.0891 24.9875 48.5447 22.7889C41.6871 18.6771 33.0506 20.0486 27.6953 25.9375Z" fill="#173B6F"/>
<path d="M39.7421 23.1909C42.7746 23.1073 45.941 24.1252 48.3007 26.0352C48.3547 26.0789 48.4087 26.1226 48.4643 26.1676C51.2902 28.4738 53.0173 31.5981 53.4765 35.2149C53.6856 39.2298 52.7712 42.799 50.0585 45.8594C47.8654 48.255 44.6635 50.0716 41.3671 50.2539C39.8495 50.3143 38.3571 50.317 36.875 49.961C36.7754 49.9382 36.7754 49.9382 36.6738 49.9149C34.2108 49.3337 32.1225 47.9999 30.332 46.25C30.2684 46.1925 30.2048 46.135 30.1393 46.0757C28.0282 44.1243 26.6403 40.8512 26.5077 38.0017C26.5032 37.6139 26.4993 37.2262 26.499 36.8384C26.4989 36.7683 26.4988 36.6981 26.4988 36.6259C26.5004 35.5736 26.5447 34.577 26.8164 33.5547C26.8331 33.491 26.8499 33.4273 26.8671 33.3616C27.4154 31.3277 28.3533 29.475 29.746 27.8906C29.8514 27.7658 29.8514 27.7658 29.9589 27.6385C30.4853 27.0287 31.0615 26.5255 31.6992 26.0352C31.779 25.9711 31.8588 25.907 31.941 25.841C34.1995 24.0965 36.9318 23.3398 39.7421 23.1909ZM45.5265 31.5331C45.4673 31.593 45.4082 31.6529 45.3472 31.7146C45.2794 31.783 45.2116 31.8513 45.1418 31.9217C45.067 31.9977 44.9922 32.0736 44.9151 32.1519C44.7974 32.2707 44.7974 32.2707 44.6774 32.3919C44.5063 32.5646 44.3354 32.7375 44.1645 32.9103C43.7554 33.3241 43.3451 33.7368 42.935 34.1496C42.3045 34.7843 41.6744 35.4195 41.0457 36.0561C40.5768 36.5308 40.1067 37.0042 39.6359 37.4769C39.4561 37.6578 39.2768 37.8392 39.098 38.021C38.8482 38.2747 38.597 38.5269 38.3454 38.7788C38.2712 38.8549 38.1969 38.931 38.1205 39.0095C38.0519 39.0776 37.9833 39.1456 37.9126 39.2158C37.8237 39.3056 37.8237 39.3056 37.7329 39.3972C37.5585 39.5117 37.5585 39.5117 37.3519 39.49C37.1224 39.3953 36.9934 39.2748 36.8188 39.0982C36.7523 39.0317 36.6859 38.9653 36.6174 38.8968C36.5468 38.8247 36.4762 38.7525 36.4035 38.6782C36.3303 38.6047 36.2572 38.5311 36.1818 38.4553C35.9483 38.2202 35.7158 37.984 35.4834 37.7478C35.3252 37.5882 35.1671 37.4287 35.0088 37.2693C34.621 36.8782 34.234 36.4863 33.8476 36.0938C33.32 36.5392 33.32 36.5392 32.8196 37.0146C32.7645 37.07 32.7094 37.1254 32.6527 37.1825C32.5978 37.2381 32.543 37.2938 32.4865 37.3511C32.4291 37.409 32.3716 37.4669 32.3124 37.5266C32.1729 37.6672 32.0336 37.8082 31.8945 37.9492C32.0492 38.3295 32.3087 38.5851 32.5961 38.8683C32.6733 38.9455 32.6733 38.9455 32.752 39.0243C32.9217 39.1939 33.0921 39.3627 33.2624 39.5316C33.3804 39.6492 33.4984 39.7669 33.6163 39.8846C33.9264 40.1939 34.237 40.5026 34.5478 40.8112C34.8649 41.1264 35.1816 41.4421 35.4982 41.7578C36.1194 42.3769 36.7411 42.9953 37.3632 43.6133C37.9421 43.1333 38.4725 42.6149 39.003 42.0823C39.0973 41.9879 39.1917 41.8935 39.2861 41.7992C39.5405 41.5448 39.7946 41.2901 40.0487 41.0354C40.3149 40.7686 40.5814 40.502 40.8479 40.2354C41.3516 39.7314 41.8551 39.2271 42.3585 38.7227C42.932 38.1481 43.5057 37.5739 44.0795 36.9996C45.259 35.8191 46.4382 34.6382 47.6171 33.457C47.4638 33.1338 47.2978 32.9184 47.043 32.6651C46.9692 32.5915 46.8954 32.5178 46.8193 32.442C46.7422 32.366 46.6651 32.2901 46.5856 32.2119C46.5082 32.1345 46.4307 32.0571 46.3509 31.9773C45.9794 31.4882 45.9794 31.4882 45.5265 31.5331Z" fill="#173B6F"/>
<path d="M52.5977 57.4805C52.8499 57.7068 52.9881 57.9329 53.1378 58.2358C53.2074 58.3756 53.2074 58.3756 53.2784 58.5182C53.3523 58.6692 53.3523 58.6692 53.4277 58.8232C53.4795 58.928 53.5313 59.0327 53.5847 59.1406C54.0174 60.0183 54.4413 60.9002 54.8609 61.7842C55.0602 62.2037 55.2617 62.6221 55.4644 63.04C55.5187 63.1521 55.5729 63.2642 55.6288 63.3797C55.7344 63.5979 55.8404 63.8159 55.9466 64.0337C55.9939 64.1317 56.0412 64.2296 56.09 64.3305C56.1534 64.461 56.1534 64.461 56.2181 64.594C56.3086 64.8047 56.3086 64.8047 56.3086 65C53.6982 65 51.0879 65 48.3984 65C48.1406 64.4844 47.8828 63.9688 47.6172 63.4375C47.5215 63.2496 47.4258 63.0616 47.3273 62.868C47.2857 62.7862 47.2442 62.7044 47.2014 62.6202C47.1179 62.456 47.0339 62.2919 46.9496 62.1281C46.9091 62.048 46.8685 61.9679 46.8268 61.8853C46.7908 61.815 46.7549 61.7446 46.7179 61.6721C46.6406 61.4844 46.6406 61.4844 46.6406 61.1914C46.7646 61.1582 46.8886 61.1249 47.0164 61.0907C49.2978 60.4575 51.1046 59.3468 52.5977 57.4805Z" fill="#173B6F"/>
<path d="M27.3047 57.4805C27.6142 57.7055 27.8648 57.9465 28.1104 58.2373C29.5137 59.8635 31.3387 60.6347 33.3594 61.1914C33.2972 61.6442 33.1137 62.0235 32.9138 62.4289C32.8624 62.5348 32.8624 62.5348 32.8098 62.6429C32.7375 62.7914 32.665 62.9398 32.5921 63.088C32.4803 63.3157 32.3693 63.5439 32.2585 63.772C32.1881 63.9164 32.1176 64.0607 32.0471 64.205C32.0138 64.2735 31.9804 64.3419 31.946 64.4125C31.7106 64.8909 31.7106 64.8909 31.6016 65C31.3549 65.0093 31.111 65.0123 30.8643 65.0111C30.7486 65.0111 30.7486 65.0111 30.6305 65.0111C30.3742 65.0111 30.118 65.0103 29.8617 65.0095C29.6845 65.0094 29.5073 65.0092 29.3301 65.0091C28.8627 65.0087 28.3954 65.0078 27.928 65.0067C27.4515 65.0057 26.975 65.0053 26.4985 65.0048C25.5628 65.0037 24.6271 65.0021 23.6914 65C23.8001 64.662 23.9128 64.3374 24.0696 64.0187C24.1049 63.9464 24.1403 63.8741 24.1767 63.7996C24.2147 63.7228 24.2527 63.646 24.2918 63.5668C24.3318 63.4853 24.3717 63.4038 24.4129 63.3198C24.5423 63.0557 24.6723 62.7919 24.8022 62.5281C24.98 62.1659 25.1576 61.8036 25.3352 61.4413C25.3789 61.3522 25.4226 61.2631 25.4676 61.1713C25.8738 60.3426 26.2733 59.5108 26.6683 58.6766C26.8639 58.2659 27.0587 57.8643 27.3047 57.4805Z" fill="#173B6F"/>
</g>
<defs>
<clipPath id="clip0_63_161">
<rect width="50" height="50" fill="white" transform="translate(15 15)"/>
</clipPath>
</defs>
</svg>
