<svg width="80" height="80" viewBox="0 0 80 80" fill="none" xmlns="http://www.w3.org/2000/svg">
<rect width="80" height="80" rx="5" fill="#173B6F" fill-opacity="0.15"/>
<path d="M37.0825 22.9345C38.3151 24.0841 39.1966 25.4463 40 26.914C40.0304 26.8644 40.0608 26.8149 40.0921 26.7638C41.7132 24.1305 43.5051 21.7629 46.6486 20.9352C49.6302 20.3437 52.5156 20.7551 55.0635 22.4523C57.1843 24.0233 58.7453 26.3226 59.1406 28.9648C59.1746 29.2777 59.1996 29.5906 59.22 29.9047C59.2252 29.9812 59.2304 30.0576 59.2357 30.1364C59.2543 30.5197 59.2613 30.6881 59.043 31.0156C58.811 31.101 58.811 31.101 58.5547 31.1132C58.3005 30.9695 58.184 30.8882 58.1006 30.6041C58.0935 30.5208 58.0863 30.4376 58.079 30.3518C58.0696 30.2589 58.0602 30.166 58.0505 30.0703C58.0372 29.9219 58.0372 29.9219 58.0237 29.7704C57.8005 27.7672 57.0831 26.0675 55.7227 24.5703C55.642 24.4777 55.642 24.4777 55.5598 24.3833C54.23 22.9452 52.018 21.9177 50.0586 21.8359C49.9489 21.8308 49.8393 21.8258 49.7263 21.8206C47.4617 21.7672 45.3158 22.3198 43.6087 23.8882C42.4527 25.0627 41.6068 26.4869 40.8463 27.9369C40.8038 28.0169 40.7613 28.0969 40.7175 28.1793C40.6803 28.2508 40.643 28.3223 40.6047 28.3959C40.4883 28.5742 40.4883 28.5742 40.1953 28.7695C39.9634 28.7817 39.9634 28.7817 39.707 28.6718C39.5934 28.5222 39.5934 28.5222 39.4793 28.3312C39.4157 28.2253 39.4157 28.2253 39.3507 28.1174C39.1766 27.8181 39.0042 27.518 38.8336 27.2167C37.5199 24.9017 35.9112 22.8698 33.256 22.1288C30.9982 21.5391 28.4954 21.7493 26.4491 22.9173C25.7225 23.356 25.0735 23.8728 24.4727 24.4726C24.4058 24.5383 24.339 24.604 24.2701 24.6717C22.6883 26.3313 21.9777 28.5884 21.9967 30.8502C22.1013 34.7812 24.086 38.1768 26.6825 41.0139C26.8058 41.1499 26.9285 41.2865 27.0472 41.4265C27.5771 42.0488 28.1543 42.6222 28.7328 43.1986C28.9095 43.3748 29.0857 43.5515 29.2618 43.7282C29.7766 44.2433 30.2908 44.7528 30.8455 45.2253C31.1385 45.4763 31.4178 45.742 31.6992 46.0058C32.1798 46.4541 32.6604 46.9016 33.1641 47.3242C33.2296 47.3886 33.2952 47.4531 33.3627 47.5195C33.754 47.7833 34.0875 47.8102 34.5503 47.8578C34.6459 47.869 34.7415 47.8802 34.84 47.8917C35.1259 47.9245 35.412 47.9557 35.6981 47.9862C35.9908 48.0177 36.2834 48.0503 36.576 48.0828C37.8976 48.2294 39.2198 48.3713 40.542 48.5125C40.9917 48.5605 41.4413 48.6091 41.8909 48.6579C42.0602 48.6762 42.2296 48.6943 42.399 48.7122C45.0453 48.9921 45.0453 48.9921 45.616 49.6397C46.0829 50.2719 46.1237 50.8456 46.0547 51.621C45.8903 52.218 45.503 52.6639 44.9805 52.9882C43.8691 53.4143 42.4887 53.1604 41.3178 53.1022C40.916 53.0824 40.5141 53.0637 40.1123 53.045C39.3667 53.0102 38.6211 52.975 37.8756 52.9377C37.3543 52.9117 36.833 52.8872 36.3117 52.8636C36.1134 52.8544 35.9153 52.8446 35.7171 52.8343C35.4414 52.82 35.1656 52.8075 34.8898 52.7955C34.8079 52.7908 34.726 52.7861 34.6417 52.7812C34.2287 52.7524 34.2287 52.7524 33.8714 52.9273C33.8313 52.9796 33.7913 53.032 33.75 53.0859C33.7722 53.2971 33.7722 53.2971 33.8477 53.4765C34.3365 53.5707 34.815 53.6008 35.3109 53.6211C35.4404 53.6268 35.4404 53.6268 35.5724 53.6327C35.8567 53.6452 36.141 53.6572 36.4252 53.6691C36.6237 53.6777 36.8222 53.6864 37.0207 53.695C37.4365 53.713 37.8523 53.7308 38.2681 53.7484C38.7994 53.7709 39.3306 53.7939 39.8619 53.8171C40.2718 53.8349 40.6818 53.8525 41.0917 53.8701C41.2875 53.8785 41.4833 53.8869 41.6791 53.8954C41.9536 53.9073 42.2282 53.9189 42.5028 53.9305C42.5827 53.934 42.6626 53.9375 42.745 53.9411C44.0283 53.9942 45.0512 53.9958 46.0547 53.0859C46.2762 52.8643 46.4171 52.6744 46.5254 52.3798C46.9764 51.1778 48.0548 50.3295 49.0149 49.5184C49.2522 49.3118 49.469 49.0866 49.6893 48.8622C49.9335 48.6224 50.193 48.402 50.4523 48.1787C50.6377 48.0138 50.8125 47.8429 50.9863 47.666C51.283 47.3638 51.5965 47.0877 51.9171 46.8115C52.1026 46.6466 52.2774 46.4757 52.4512 46.2988C52.6846 46.0611 52.9249 45.8385 53.1775 45.6213C53.4517 45.3851 53.7109 45.1407 53.9648 44.8828C54.278 44.5653 54.6021 44.2676 54.9406 43.9775C55.0751 43.8617 55.2077 43.7438 55.3389 43.6243C55.4051 43.5642 55.4713 43.5042 55.5396 43.4423C55.5982 43.3884 55.6569 43.3346 55.7173 43.2791C56.3969 42.7571 57.0432 42.7495 57.8711 42.832C58.5283 42.9992 58.9539 43.4631 59.3359 44.0038C59.6141 44.5481 59.6448 45.2523 59.4826 45.8404C59.1764 46.6498 58.5584 47.2179 57.9688 47.8276C57.8473 47.9548 57.726 48.0821 57.6047 48.2094C57.2073 48.6256 56.8071 49.0391 56.4062 49.452C56.3377 49.5226 56.2692 49.5931 56.1986 49.6659C55.5503 50.3331 54.9007 50.9989 54.2485 51.6623C53.419 52.5064 52.5959 53.3559 51.7807 54.2138C51.2045 54.8191 50.6214 55.4171 50.0329 56.0105C49.6828 56.3639 49.3363 56.7195 48.9971 57.0834C46.7486 59.4874 46.7486 59.4874 45.3837 59.5864C44.6365 59.6109 43.9008 59.5086 43.164 59.3952C42.5576 59.305 41.9509 59.2961 41.3389 59.2843C41.0111 59.277 40.6836 59.2634 40.3559 59.2504C40.223 59.2453 40.0901 59.2402 39.9571 59.2351C39.8903 59.2326 39.8236 59.23 39.7548 59.2274C39.3993 59.2138 39.0437 59.2005 38.6882 59.1871C37.9458 59.1592 37.2034 59.131 36.461 59.1028C35.3344 59.06 34.2078 59.0174 33.0811 58.975C32.6612 58.9592 32.2412 58.9432 31.8213 58.9272C31.501 58.915 31.1807 58.903 30.8604 58.8909C30.7457 58.8865 30.6309 58.882 30.5127 58.8775C30.4069 58.8735 30.3011 58.8696 30.192 58.8655C30.1006 58.862 30.0092 58.8585 29.9151 58.8549C29.8271 58.8525 29.7391 58.8501 29.6484 58.8476C29.4936 58.8425 29.4936 58.8425 29.3356 58.8373C28.9763 58.8509 28.8726 58.9601 28.6169 59.2077C28.4933 59.3259 28.4933 59.3259 28.3671 59.4465C28.2732 59.5397 28.1795 59.633 28.0859 59.7265C28.0026 59.8088 28.0026 59.8088 27.9177 59.8927C27.548 60.2579 27.1813 60.626 26.8164 60.996C26.5387 60.8698 26.338 60.7372 26.123 60.5214C26.0658 60.4645 26.0085 60.4075 25.9496 60.3488C25.888 60.2865 25.8264 60.2242 25.7629 60.16C25.6971 60.0942 25.6313 60.0285 25.5636 59.9608C25.3464 59.7435 25.13 59.5256 24.9136 59.3076C24.7632 59.1568 24.6126 59.006 24.4621 58.8553C24.0661 58.4585 23.6707 58.0612 23.2753 57.6637C22.8718 57.2582 22.4677 56.8532 22.0637 56.4482C21.2711 55.6535 20.4791 54.8581 19.6875 54.0624C19.812 53.7911 19.9422 53.5867 20.1492 53.3721C20.2034 53.3155 20.2575 53.259 20.3133 53.2007C20.3726 53.1399 20.4318 53.079 20.4929 53.0163C20.5555 52.9513 20.6181 52.8864 20.6826 52.8194C21.3371 52.1418 21.9981 51.4705 22.6596 50.7998C22.973 50.4816 23.2843 50.1615 23.5938 49.8395C23.9682 49.4502 24.3461 49.0646 24.7267 48.6814C24.8708 48.5351 25.0136 48.3875 25.155 48.2387C26.2586 47.081 26.2586 47.081 26.8917 46.9619C27.2405 46.9844 27.5521 47.0436 27.8906 47.1288C28.0586 47.1476 28.2269 47.1636 28.3955 47.1758C28.5494 47.1916 28.7034 47.2076 28.8573 47.2238C28.9399 47.2324 29.0225 47.2409 29.1076 47.2497C29.3652 47.2763 29.6228 47.3033 29.8804 47.3303C30.0576 47.3487 30.2349 47.367 30.4121 47.3854C30.8412 47.4299 31.2702 47.4746 31.6992 47.5195C31.6498 47.4766 31.6004 47.4337 31.5496 47.3895C31.132 47.0256 30.7193 46.6576 30.3137 46.2805C30.2025 46.1772 30.0912 46.0739 29.9799 45.9707C29.9244 45.9192 29.8688 45.8676 29.8116 45.8145C29.6608 45.6754 29.509 45.5375 29.3566 45.4C28.6573 44.7668 27.9849 44.1084 27.3169 43.4423C27.2298 43.3557 27.1427 43.269 27.0529 43.1797C26.5632 42.6888 26.0944 42.1876 25.6445 41.6601C25.5578 41.5615 25.471 41.4629 25.384 41.3645C22.4336 37.9567 20.5832 33.9659 20.8826 29.3905C21.1814 26.7953 22.5451 24.4659 24.5257 22.7987C28.148 20.0148 33.6065 19.7974 37.0825 22.9345Z" fill="#173B6F"/>
<path d="M50.1623 32.0349C50.3226 32.0333 50.3226 32.0333 50.486 32.0316C51.6446 32.042 52.5982 32.4061 53.4766 33.164C54.512 34.2751 54.6828 35.5152 54.6606 36.9848C54.6598 37.0968 54.6589 37.2089 54.658 37.3243C54.6557 37.5977 54.6522 37.8711 54.6484 38.1445C54.0039 38.1445 53.3594 38.1445 52.6953 38.1445C52.6526 37.2228 52.6526 37.2228 52.6398 36.932C52.6361 36.8569 52.6324 36.7818 52.6285 36.7044C52.625 36.6272 52.6214 36.55 52.6177 36.4704C52.6166 36.2876 52.6166 36.2876 52.5 36.1914C52.3373 36.1874 52.1744 36.1872 52.0117 36.1914C51.9025 36.4098 51.8951 36.5477 51.8832 36.7903C51.8776 36.8966 51.8776 36.8966 51.8719 37.0051C51.8677 37.0951 51.8635 37.1851 51.8591 37.2778C51.845 37.5638 51.8309 37.8498 51.8164 38.1445C50.7207 38.1445 49.625 38.1445 48.4961 38.1445C48.4477 37.1777 48.4477 37.1777 48.3984 36.1914C48.2051 36.1591 48.0117 36.1269 47.8125 36.0937C47.7803 36.7705 47.748 37.4472 47.7148 38.1445C47.0703 38.1445 46.4258 38.1445 45.7617 38.1445C45.6696 34.5738 45.6696 34.5738 46.8359 33.2617C47.7726 32.3412 48.8725 32.0066 50.1623 32.0349Z" fill="#173B6F"/>
<path d="M35.6543 37.8027C35.7569 37.8012 35.8595 37.7997 35.9652 37.7981C36.9251 37.8028 37.7665 38.0428 38.5352 38.6328C38.6299 38.6992 38.7245 38.7657 38.8221 38.8342C39.5499 39.4605 39.9308 40.343 40.0977 41.2695C40.1295 41.7323 40.1257 42.1913 40.116 42.655C40.114 42.8363 40.114 42.8363 40.112 43.0214C40.1086 43.3163 40.1033 43.6113 40.0977 43.9062C39.4532 43.9062 38.8086 43.9062 38.1446 43.9062C38.1018 42.9846 38.1018 42.9846 38.0891 42.6937C38.0854 42.6186 38.0816 42.5435 38.0778 42.4661C38.0742 42.3889 38.0706 42.3117 38.067 42.2321C38.0659 42.0494 38.0659 42.0494 37.9492 41.9531C37.7865 41.9491 37.6237 41.9489 37.461 41.9531C37.3766 42.2062 37.3461 42.3769 37.3324 42.6378C37.3287 42.7045 37.325 42.7712 37.3211 42.8399C37.3169 42.9239 37.3127 43.0079 37.3084 43.0944C37.2943 43.3623 37.2802 43.6302 37.2657 43.9062C36.2022 43.9062 35.1387 43.9062 34.043 43.9062C34.0003 43.0395 34.0003 43.0395 33.9875 42.7668C33.9819 42.6605 33.9819 42.6605 33.9762 42.552C33.9727 42.4794 33.9691 42.4067 33.9654 42.3319C33.9552 42.1397 33.9552 42.1397 33.8477 41.9531C33.685 41.9489 33.5221 41.9491 33.3594 41.9531C33.2081 42.1044 33.2406 42.2558 33.2308 42.4661C33.2271 42.5412 33.2234 42.6163 33.2196 42.6937C33.2133 42.8377 33.2133 42.8377 33.2068 42.9846C33.1927 43.2887 33.1786 43.5928 33.1641 43.9062C32.5196 43.9062 31.875 43.9062 31.211 43.9062C31.203 43.5054 31.1972 43.1047 31.1927 42.7038C31.1902 42.5917 31.1877 42.4796 31.1852 42.3641C31.1744 41.0944 31.4716 39.8616 32.3828 38.9257C33.3873 38.1 34.3611 37.7836 35.6543 37.8027Z" fill="#173B6F"/>
<path d="M36.7163 32.4316C37.2537 32.7504 37.7076 33.2716 37.9492 33.8476C38.1107 34.5395 38.0519 35.156 37.7539 35.8007C37.3876 36.3795 36.8993 36.7505 36.2402 36.9482C35.4223 37.03 34.7201 36.935 34.0613 36.4172C33.5027 35.8833 33.3361 35.401 33.3105 34.6289C33.3345 33.9266 33.4471 33.4821 33.9327 32.9721C34.6997 32.2632 35.7141 31.9883 36.7163 32.4316Z" fill="#173B6F"/>
<path d="M51.2671 26.6699C51.8423 27.0124 52.2982 27.545 52.5 28.1836C52.6046 29.0234 52.5258 29.7413 52.0117 30.4297C51.5724 30.8803 51.0796 31.1567 50.4492 31.2109C49.7127 31.2192 49.0851 31.0663 48.5232 30.5758C48.0654 30.0909 47.8374 29.565 47.7965 28.8996C47.8223 28.1961 48.0432 27.6488 48.4961 27.1094C49.2587 26.4835 50.3384 26.2557 51.2671 26.6699Z" fill="#173B6F"/>
<path d="M31.1132 26.5234C31.4796 26.6483 31.7343 26.837 31.9799 27.1399C32.1673 27.5876 32.206 27.9536 32.1386 28.4338C31.9295 28.913 31.58 29.2197 31.1132 29.4531C30.5582 29.5108 30.1222 29.4797 29.6484 29.1602C29.2453 28.7244 29.1293 28.3957 29.1391 27.7987C29.1857 27.3526 29.3774 27.08 29.7033 26.7859C30.1654 26.466 30.5607 26.4639 31.1132 26.5234Z" fill="#173B6F"/>
<path d="M60.7398 34.873C60.9727 35.2314 61.0158 35.5721 60.9961 35.996C60.8782 36.2877 60.7815 36.4256 60.5323 36.6125C60.2077 36.7117 59.9671 36.7205 59.6289 36.6796C59.3166 36.4945 59.1054 36.3529 58.9713 36.0056C58.8978 35.6225 58.9316 35.4388 59.104 35.0805C59.5736 34.5615 60.1328 34.4896 60.7398 34.873Z" fill="#173B6F"/>
<path d="M57.1875 55.4297C57.4607 55.6429 57.5537 55.7886 57.6178 56.1286C57.6453 56.5413 57.6152 56.7429 57.3767 57.0899C57.0313 57.325 56.8236 57.3828 56.4062 57.3828C56.096 57.2716 55.8951 57.1817 55.686 56.9251C55.5938 56.584 55.5556 56.2642 55.625 55.918C56.1029 55.3269 56.471 55.249 57.1875 55.4297Z" fill="#173B6F"/>
<path d="M46.3477 41.8555C46.6186 41.9786 46.7855 42.0812 46.9641 42.3194C47.093 42.741 47.0884 43.0941 46.9092 43.4973C46.7256 43.7268 46.6174 43.7995 46.3477 43.9063C46.0425 43.9272 45.7629 43.8924 45.4688 43.8086C45.2146 43.5799 45.1108 43.403 44.9866 43.0884C44.9776 42.7122 45.092 42.475 45.2734 42.1485C45.6228 41.8557 45.898 41.7993 46.3477 41.8555Z" fill="#173B6F"/>
<path d="M21.9336 38.5351C22.2698 38.7426 22.3942 38.8426 22.5195 39.2187C22.5575 39.6289 22.5644 39.8336 22.3364 40.1831C22.0587 40.4608 21.8956 40.5081 21.5125 40.5249C21.154 40.5202 21.0681 40.4978 20.7617 40.2807C20.5409 39.9632 20.4688 39.8002 20.4688 39.414C20.657 38.8197 20.657 38.8197 20.9265 38.59C21.2669 38.5073 21.5887 38.4783 21.9336 38.5351Z" fill="#173B6F"/>
<path d="M59.3359 18.3203C59.6116 18.4429 59.7718 18.5434 59.9524 18.7842C60.0516 19.1088 60.0603 19.3493 60.0195 19.6875C59.7805 20.0787 59.6361 20.2411 59.1956 20.3772C58.7899 20.3701 58.5931 20.3116 58.2617 20.0782C58.0282 19.7468 57.9698 19.55 57.9626 19.1443C58.1754 18.4561 58.6423 18.2195 59.3359 18.3203Z" fill="#173B6F"/>
<path d="M20.957 19.2969C21.2315 19.4721 21.3974 19.5917 21.543 19.8828C21.591 20.363 21.5902 20.576 21.3599 21.0059C21.1177 21.2584 20.9114 21.2981 20.5664 21.3172C20.2165 21.2931 20.0795 21.2509 19.773 21.0608C19.5272 20.6593 19.4974 20.3424 19.5899 19.8828C19.9428 19.3181 20.3038 19.203 20.957 19.2969Z" fill="#173B6F"/>
<path d="M20.957 45.2734C21.2373 45.4486 21.3956 45.5647 21.543 45.8593C21.5997 46.5517 21.5997 46.5517 21.3599 46.9275C21.0768 47.2022 20.9939 47.2228 20.5908 47.2631C20.2246 47.2551 19.9685 47.1724 19.6948 46.9099C19.4743 46.5491 19.5043 46.1633 19.5899 45.7617C19.9273 45.2174 20.3606 45.1535 20.957 45.2734Z" fill="#173B6F"/>
</svg>
