<svg width="80" height="80" viewBox="0 0 80 80" fill="none" xmlns="http://www.w3.org/2000/svg">
<rect width="80" height="80" rx="5" fill="#173B6F" fill-opacity="0.15"/>
<g clip-path="url(#clip0_63_182)">
<path d="M48.1055 46.4453C48.1055 47.7666 48.1055 49.0879 48.1055 50.4492C53.6807 50.4492 59.2558 50.4492 65 50.4492C64.907 50.8211 64.8214 50.9858 64.6059 51.2904C64.5438 51.3789 64.4817 51.4674 64.4176 51.5586C64.35 51.6537 64.2823 51.7489 64.2126 51.8469C64.0693 52.0506 63.926 52.2543 63.7827 52.458C63.6723 52.6144 63.6723 52.6144 63.5596 52.774C63.2195 53.2568 62.8831 53.7421 62.5464 54.2273C62.0508 54.9399 61.5545 55.6521 61.0571 56.3635C61.0061 56.4366 60.9551 56.5096 60.9026 56.5848C60.8014 56.7295 60.6979 56.8725 60.5921 57.0138C60.398 57.2876 60.398 57.2876 60.2538 57.6266C60.0477 58.0425 59.8246 58.3903 59.4336 58.6523C58.6148 58.9064 57.7056 58.8109 56.8602 58.7859C56.6076 58.7833 56.355 58.7814 56.1024 58.78C55.5074 58.7753 54.9128 58.7646 54.3179 58.7508C53.6401 58.7355 52.9624 58.728 52.2845 58.7211C50.8912 58.7069 49.4984 58.6818 48.1055 58.6523C48.1055 59.9736 48.1055 61.2949 48.1055 62.6562C47.7785 62.4928 47.6222 62.3931 47.3743 62.1472C47.3087 62.0826 47.2431 62.018 47.1756 61.9514C47.1047 61.8806 47.0338 61.8097 46.9607 61.7368C46.8853 61.6621 46.8098 61.5875 46.7321 61.5106C46.4827 61.2636 46.2341 61.0158 45.9856 60.768C45.813 60.5962 45.6404 60.4245 45.4677 60.2527C45.1061 59.8927 44.7448 59.5322 44.3839 59.1715C43.9663 58.7543 43.5475 58.3384 43.1281 57.9231C42.7247 57.5235 42.3226 57.1225 41.9211 56.7211C41.7499 56.5504 41.5784 56.3801 41.4065 56.2102C41.1668 55.9731 40.9287 55.7345 40.6909 55.4955C40.619 55.4251 40.5471 55.3547 40.4731 55.2821C40.3768 55.1844 40.3768 55.1844 40.2785 55.0846C40.1938 55.0002 40.1938 55.0002 40.1074 54.9141C40 54.7461 40 54.7461 40.012 54.5513C40.1132 54.32 40.2302 54.1865 40.409 54.0082C40.4756 53.9411 40.5421 53.874 40.6107 53.8049C40.7209 53.696 40.7209 53.696 40.8333 53.585C40.9103 53.5078 40.9873 53.4306 41.0667 53.351C41.3218 53.0956 41.5779 52.8413 41.8341 52.587C42.0111 52.4102 42.1881 52.2335 42.365 52.0566C42.736 51.6861 43.1074 51.3161 43.4792 50.9464C43.9571 50.4714 44.4341 49.9954 44.9108 49.5191C45.2761 49.1541 45.6418 48.7895 46.0075 48.4249C46.1836 48.2494 46.3596 48.0739 46.5355 47.8983C46.7808 47.6537 47.0264 47.4094 47.2721 47.1652C47.3456 47.0919 47.4191 47.0185 47.4947 46.943C47.5946 46.844 47.5946 46.844 47.6964 46.743C47.7545 46.6852 47.8126 46.6273 47.8725 46.5678C48.0078 46.4453 48.0078 46.4453 48.1055 46.4453Z" fill="#173B6F"/>
<path d="M28.2812 34.9219C28.3576 35.0847 28.3576 35.0847 28.4146 35.3002C28.4368 35.3816 28.4589 35.4631 28.4818 35.547C28.5049 35.637 28.528 35.727 28.5519 35.8198C28.5772 35.9141 28.6025 36.0085 28.6285 36.1057C28.7123 36.4194 28.7943 36.7336 28.8763 37.0478C28.9342 37.266 28.9922 37.4842 29.0503 37.7024C29.2035 38.2788 29.3552 38.8556 29.5066 39.4325C29.6598 40.0155 29.8146 40.5982 29.9692 41.1808C30.924 44.7831 30.924 44.7831 31.2109 45.957C30.8601 45.8773 30.5902 45.7452 30.2756 45.5679C30.1702 45.5088 30.0648 45.4496 29.9563 45.3886C29.7918 45.2954 29.7918 45.2954 29.624 45.2002C29.5159 45.1395 29.4077 45.0788 29.2963 45.0163C28.721 44.6921 28.1542 44.3595 27.5976 44.0039C27.558 44.1092 27.558 44.1092 27.5176 44.2166C27.4028 44.4911 27.2704 44.7385 27.1212 44.9957C27.0643 45.0941 27.0074 45.1925 26.9487 45.2939C26.8869 45.3999 26.8251 45.506 26.7615 45.6152C26.6968 45.7267 26.6322 45.8382 26.5656 45.953C25.941 47.0293 25.311 48.1024 24.6809 49.1755C24.3113 49.8049 23.943 50.4351 23.5754 51.0657C23.5199 51.1608 23.4645 51.256 23.4073 51.354C23.2415 51.6384 23.0758 51.9227 22.9101 52.207C22.4548 52.9885 21.9991 53.7698 21.543 54.5508C21.4922 54.6378 21.4922 54.6378 21.4404 54.7266C21.2218 55.101 21.0031 55.4753 20.7842 55.8494C20.7137 55.9699 20.6433 56.0903 20.573 56.2108C20.0937 57.0318 19.603 57.8448 19.1015 58.6524C18.7791 58.3875 18.6388 58.0356 18.4717 57.664C18.4234 57.5585 18.4234 57.5585 18.3741 57.451C18.268 57.219 18.1629 56.9866 18.0578 56.7542C17.9841 56.5923 17.9103 56.4304 17.8365 56.2685C17.2524 54.9857 16.6782 53.6985 16.1088 52.409C16.0784 52.3401 16.0479 52.2712 16.0165 52.2002C15.9574 52.0662 15.8983 51.9322 15.8394 51.7982C15.7012 51.485 15.56 51.1738 15.4114 50.8654C15.3576 50.7532 15.3038 50.6411 15.2483 50.5255C15.1764 50.3791 15.1764 50.3791 15.1031 50.2297C14.9594 49.8551 14.9369 49.6149 15.1007 49.2455C15.148 49.1672 15.1954 49.089 15.2441 49.0084C15.2977 48.9184 15.3513 48.8283 15.4066 48.7356C15.4658 48.6384 15.5249 48.5413 15.5859 48.4412C15.7124 48.229 15.8388 48.0168 15.9651 47.8045C15.9981 47.7494 16.031 47.6942 16.065 47.6374C16.3972 47.0813 16.719 46.5194 17.0393 45.9564C17.1368 45.7851 17.2345 45.6139 17.3321 45.4427C17.5314 45.0934 17.7306 44.744 17.9297 44.3945C18.2022 43.9163 18.4747 43.4382 18.7475 42.9602C18.7965 42.8744 18.7965 42.8744 18.8464 42.7869C19.3795 41.8533 19.9195 40.9242 20.4687 40C20.1253 39.7125 19.7766 39.4792 19.3876 39.2577C19.276 39.1937 19.1643 39.1298 19.0493 39.0639C18.9324 38.9975 18.8156 38.9311 18.6987 38.8648C18.4685 38.7334 18.2384 38.6019 18.0083 38.4703C17.9065 38.4125 17.8048 38.3546 17.7 38.295C17.5124 38.1859 17.329 38.0696 17.1484 37.9492C17.1484 37.8848 17.1484 37.8203 17.1484 37.7539C17.2425 37.7287 17.3365 37.7036 17.4334 37.6776C18.3336 37.4365 19.2338 37.1953 20.134 36.954C20.5964 36.8301 21.0588 36.7062 21.5213 36.5823C21.9685 36.4626 22.4158 36.3427 22.863 36.2228C23.0395 36.1754 23.2161 36.1282 23.3927 36.0809C24.2762 35.8444 25.1591 35.6063 26.0392 35.3575C26.1402 35.3291 26.1402 35.3291 26.2432 35.3001C26.5519 35.2132 26.8603 35.1255 27.1684 35.0363C27.2736 35.0065 27.3788 34.9768 27.4871 34.9461C27.5776 34.92 27.6681 34.8939 27.7614 34.867C27.9883 34.8242 27.9883 34.8242 28.2812 34.9219Z" fill="#173B6F"/>
<path d="M34.3359 15.7813C35.487 15.7382 36.6378 15.7053 37.7895 15.6852C38.3244 15.6755 38.8588 15.6624 39.3934 15.6413C39.9101 15.621 40.4263 15.61 40.9434 15.6052C41.1399 15.6018 41.3363 15.5952 41.5325 15.5851C42.7811 15.5236 42.7811 15.5236 43.3203 15.7813C43.8104 16.2334 44.1046 16.8229 44.3868 17.4186C44.522 17.6986 44.683 17.9585 44.8508 18.22C44.9511 18.3856 45.0513 18.5513 45.1514 18.7171C45.6409 19.5245 46.1332 20.3301 46.6284 21.1341C46.6929 21.2388 46.7574 21.3434 46.8238 21.4513C47.0231 21.7749 47.2225 22.0984 47.4219 22.4219C47.6689 22.8227 47.9159 23.2236 48.1627 23.6245C48.2607 23.7835 48.3587 23.9425 48.4568 24.1015C48.8322 24.711 49.2036 25.3227 49.5703 25.9375C50.0826 25.7922 50.4984 25.5581 50.9497 25.2845C51.0964 25.1968 51.2432 25.1092 51.3899 25.0216C51.4618 24.9784 51.5337 24.9352 51.6078 24.8907C51.9042 24.713 52.2019 24.5376 52.5 24.3628C52.5927 24.3082 52.6853 24.2536 52.7808 24.1973C52.9883 24.0821 52.9883 24.0821 53.0859 24.0821C53.0354 24.6597 52.9431 25.2031 52.7893 25.7618C52.7592 25.8739 52.7592 25.8739 52.7286 25.9884C52.6628 26.2334 52.5961 26.4782 52.5294 26.723C52.4827 26.8961 52.4361 27.0692 52.3895 27.2424C52.2668 27.6978 52.1434 28.153 52.0198 28.6082C51.8961 29.0641 51.7732 29.5203 51.6503 29.9764C51.1878 31.6908 50.7227 33.4045 50.2539 35.1172C49.809 35.2564 49.4496 35.1307 49.0131 35.0096C48.9273 34.9866 48.8415 34.9636 48.7531 34.9399C48.4685 34.8633 48.1844 34.7854 47.9002 34.7075C47.7014 34.6537 47.5026 34.6 47.3037 34.5464C46.7785 34.4045 46.2536 34.2615 45.7288 34.1183C45.2011 33.9745 44.6731 33.8318 44.1451 33.689C42.4363 33.2264 40.7285 32.7609 39.0234 32.2852C39.2841 32.0126 39.5507 31.8436 39.8798 31.6569C40.0463 31.5618 40.0463 31.5618 40.2161 31.4648C40.3333 31.3985 40.4504 31.3322 40.5676 31.2659C40.7963 31.1361 41.0247 31.0059 41.2531 30.8757C41.4053 30.7895 41.4053 30.7895 41.5605 30.7015C41.8625 30.5232 42.1515 30.3338 42.4414 30.1368C41.9096 29.1663 41.3658 28.2041 40.8057 27.2498C40.3323 26.4431 39.8688 25.6318 39.4141 24.8145C38.9128 23.9137 38.3988 23.0213 37.8768 22.1324C37.4608 21.4219 37.0558 20.7059 36.6553 19.9866C36.0897 18.9711 35.5081 17.9667 34.9122 16.9687C34.8134 16.803 34.715 16.637 34.6167 16.471C34.5621 16.3795 34.5074 16.2879 34.4511 16.1937C34.3359 15.9766 34.3359 15.9766 34.3359 15.7813Z" fill="#173B6F"/>
<path d="M27.9471 50.2585C28.1797 50.2622 28.4123 50.2649 28.6449 50.2669C29.2541 50.2743 29.8624 50.2935 30.4712 50.3151C31.2033 50.3387 31.9357 50.3476 32.668 50.359C33.778 50.3779 34.886 50.4153 35.9961 50.4493C35.9961 53.1563 35.9961 55.8633 35.9961 58.6524C30.9688 58.6524 25.9414 58.6524 20.7617 58.6524C21.1537 57.9337 21.5501 57.2218 21.9641 56.5161C22.0223 56.4168 22.0804 56.3174 22.1403 56.2151C22.2657 56.0009 22.3911 55.7868 22.5166 55.5727C22.6866 55.2827 22.8563 54.9925 23.0259 54.7022C23.1682 54.4588 23.3106 54.2154 23.453 53.972C23.5524 53.8021 23.6517 53.6321 23.751 53.4622C23.8795 53.2429 24.0102 53.025 24.1435 52.8087C24.3172 52.5173 24.4557 52.2226 24.5889 51.9108C25.3534 50.2442 26.2206 50.1787 27.9471 50.2585Z" fill="#173B6F"/>
<path d="M56.8945 36.6797C57.0616 36.9087 57.0616 36.9087 57.2451 37.2305C57.2783 37.288 57.3115 37.3455 57.3457 37.4048C57.4547 37.5939 57.5621 37.7837 57.6697 37.9736C57.7453 38.1053 57.821 38.2368 57.8969 38.3683C58.048 38.6303 58.1987 38.8926 58.3491 39.155C58.603 39.5969 58.8645 40.034 59.1284 40.47C59.6263 41.2959 60.1194 42.1247 60.6115 42.9541C60.6702 43.0529 60.6702 43.0529 60.73 43.1537C60.8904 43.4241 61.0508 43.6945 61.2113 43.965C61.5038 44.4582 61.7967 44.9513 62.0897 45.4443C62.2141 45.6537 62.3385 45.863 62.4629 46.0724C62.5416 46.2048 62.6203 46.3371 62.699 46.4695C62.9456 46.8843 63.1918 47.2994 63.4375 47.7148C63.4715 47.7723 63.5056 47.8299 63.5406 47.8891C63.6382 48.0542 63.7355 48.2194 63.8327 48.3847C63.9163 48.5267 63.9163 48.5267 64.0016 48.6715C64.1211 48.8867 64.1211 48.8867 64.1211 48.9844C62.8579 49.0047 61.5948 49.0204 60.3316 49.0299C59.745 49.0345 59.1585 49.0407 58.572 49.0507C58.0059 49.0602 57.4399 49.0655 56.8738 49.0678C56.6578 49.0694 56.4419 49.0726 56.2259 49.0773C55.9233 49.0837 55.6211 49.0846 55.3184 49.0842C55.1846 49.0889 55.1846 49.0889 55.0481 49.0937C54.7892 49.09 54.5977 49.0769 54.3554 48.9844C54.1024 48.7188 53.9358 48.4306 53.7695 48.1055C53.7173 48.0183 53.6651 47.9311 53.6112 47.8413C53.5711 47.7686 53.5309 47.6959 53.4895 47.621C53.4422 47.5361 53.3948 47.4512 53.3461 47.3637C53.2965 47.2741 53.2469 47.1846 53.1958 47.0923C52.716 46.2341 52.2223 45.3855 51.7187 44.541C51.5227 44.2108 51.327 43.8804 51.1314 43.5499C51.0016 43.3309 50.8716 43.1121 50.7413 42.8935C50.5569 42.583 50.3746 42.2713 50.1928 41.9592C50.1086 41.8187 50.1086 41.8187 50.0227 41.6754C49.9729 41.5889 49.923 41.5024 49.8716 41.4133C49.8274 41.3381 49.7831 41.2628 49.7375 41.1853C49.6679 40.9766 49.6679 40.9766 49.7201 40.7743C49.9108 40.5234 50.1119 40.4134 50.3878 40.2609C50.497 40.1997 50.6063 40.1384 50.7188 40.0753C50.7773 40.0432 50.8358 40.0111 50.896 39.9779C51.2071 39.8068 51.5164 39.6323 51.8259 39.4583C51.8898 39.4226 51.9536 39.3868 52.0194 39.35C52.6299 39.0075 53.2323 38.6522 53.8334 38.2936C54.1066 38.1306 54.3802 37.9682 54.6538 37.8058C54.7535 37.7465 54.8533 37.6872 54.9562 37.6261C55.3249 37.4072 55.6937 37.1884 56.0644 36.9727C56.214 36.885 56.214 36.885 56.3666 36.7957C56.6015 36.6797 56.6015 36.6797 56.8945 36.6797Z" fill="#173B6F"/>
<path d="M33.3594 17.3438C33.4238 17.3438 33.4883 17.3438 33.5547 17.3438C33.7134 17.6215 33.8721 17.8992 34.0308 18.1769C34.1711 18.4224 34.3114 18.6679 34.4517 18.9135C34.7745 19.4783 35.0973 20.0431 35.4197 20.6082C35.4848 20.7222 35.5498 20.8361 35.6149 20.95C35.7757 21.2316 35.9363 21.5134 36.0964 21.7955C36.393 22.3169 36.692 22.836 37.0024 23.3494C37.143 23.5821 37.2822 23.8156 37.4215 24.0492C37.5197 24.2125 37.62 24.3745 37.7204 24.5364C37.779 24.635 37.8377 24.7335 37.8981 24.8351C37.9505 24.921 38.003 25.0069 38.057 25.0954C38.1767 25.4459 38.0986 25.6035 37.9492 25.9375C37.8521 26.1265 37.7498 26.3129 37.6433 26.4967C37.5814 26.6042 37.5196 26.7116 37.4559 26.8222C37.3884 26.9383 37.3209 27.0544 37.2534 27.1704C37.1833 27.292 37.1132 27.4135 37.0431 27.5352C36.8974 27.788 36.7515 28.0407 36.6053 28.2933C36.2966 28.8275 35.9905 29.3632 35.6846 29.899C35.5875 30.0689 35.4904 30.2388 35.3933 30.4087C34.7767 31.4878 34.1649 32.5696 33.5547 33.6523C33.1768 33.5946 32.8989 33.4822 32.5671 33.2941C32.4705 33.2398 32.374 33.1855 32.2746 33.1295C32.1713 33.0704 32.0681 33.0113 31.9617 32.9504C31.7998 32.8588 31.7998 32.8588 31.6347 32.7653C30.703 32.2362 29.7777 31.6963 28.8535 31.1545C27.9834 30.645 27.107 30.1467 26.2305 29.6484C26.3683 29.2805 26.5367 28.9479 26.7317 28.607C26.7935 28.4988 26.8554 28.3906 26.919 28.2791C26.9865 28.1618 27.0541 28.0445 27.1216 27.9272C27.1918 27.8047 27.2621 27.6823 27.3323 27.5597C27.8699 26.6239 28.4185 25.6949 28.9707 24.7676C29.4205 24.0116 29.8632 23.2517 30.3015 22.489C30.9058 21.4377 31.5196 20.3925 32.1383 19.3497C32.2855 19.1011 32.4318 18.8519 32.5777 18.6026C32.6233 18.5249 32.6688 18.4471 32.7157 18.3671C32.8008 18.2217 32.8858 18.0763 32.9706 17.9308C33.251 17.4522 33.251 17.4522 33.3594 17.3438Z" fill="#173B6F"/>
</g>
<defs>
<clipPath id="clip0_63_182">
<rect width="50" height="50" fill="white" transform="translate(15 15)"/>
</clipPath>
</defs>
</svg>
