<svg width="80" height="80" viewBox="0 0 80 80" fill="none" xmlns="http://www.w3.org/2000/svg">
<rect width="80" height="80" rx="5" fill="#173B6F" fill-opacity="0.15"/>
<path d="M48.4961 19.7851C48.5283 19.8174 48.5605 19.8496 48.5937 19.8828C49.3784 19.8634 50.1604 19.7646 50.9393 19.6723C52.2183 19.5254 53.4833 19.4624 54.7705 19.4616C54.8443 19.4613 54.9182 19.461 54.9942 19.4607C57.7602 19.4535 60.9209 19.8075 63.0182 21.7947C63.9287 22.7564 64.3645 23.8285 64.3427 25.1551C64.0818 28.0704 62.0666 30.3402 60.0988 32.3279C60.0356 32.392 59.9723 32.4562 59.9071 32.5224C59.8481 32.5809 59.7892 32.6395 59.7284 32.6998C59.65 32.7779 59.65 32.7779 59.57 32.8575C59.4336 32.9687 59.4336 32.9687 59.2382 32.9687C59.5785 33.3685 59.9232 33.7566 60.3003 34.1223C60.7684 34.5841 61.1717 35.0926 61.582 35.6054C61.6474 35.6827 61.7129 35.76 61.7804 35.8397C63.3111 37.6681 64.2181 39.7432 64.0234 42.1484C63.8721 42.9875 63.4837 43.6423 62.9492 44.2968C62.9003 44.3579 62.8515 44.419 62.8012 44.4819C61.3091 46.151 58.5863 46.599 56.4669 46.726C54.1932 46.8045 51.9627 46.6451 49.7168 46.2927C49.6471 46.2818 49.5775 46.2709 49.5058 46.2596C48.3418 46.0752 48.3418 46.0752 48.1054 45.957C48.081 46.0347 48.0566 46.1123 48.0314 46.1924C47.9114 46.5393 47.7756 46.8754 47.635 47.2144C46.8988 48.998 46.4466 50.8604 46.3476 52.7929C46.3413 52.8947 46.335 52.9964 46.3285 53.1012C46.295 53.7026 46.295 53.7026 46.5246 54.2395C46.5951 54.31 46.6656 54.3805 46.7382 54.4531C47.109 55.1535 47.2255 55.8535 47.0129 56.6259C46.8576 57.0777 46.6625 57.4943 46.2888 57.8064C46.0998 58.0311 46.1163 58.1814 46.1161 58.4723C46.1135 58.6222 46.1135 58.6222 46.1109 58.7752C46.11 58.9832 46.1095 59.1912 46.1094 59.3992C46.0907 60.4302 45.8369 61.4269 45.0781 62.1679C44.0556 62.9382 43.0595 62.9799 41.8257 62.9786C41.6802 62.9789 41.5348 62.9794 41.3894 62.9798C41.0855 62.9806 40.7817 62.9805 40.4778 62.98C40.0908 62.9795 39.7039 62.9811 39.3169 62.9834C39.0167 62.9848 38.7166 62.9849 38.4165 62.9846C38.274 62.9846 38.1314 62.9851 37.9888 62.9861C36.8005 62.9934 35.7479 62.8826 34.8242 62.0703C34.0481 61.1705 33.8998 60.2426 33.927 59.0857C33.9283 58.9778 33.9296 58.87 33.931 58.7589C33.9344 58.4955 33.9392 58.2321 33.9453 57.9687C33.8837 57.9398 33.8221 57.9108 33.7586 57.881C33.3448 57.6627 33.147 57.2087 32.9885 56.7831C32.7734 55.9749 32.8481 55.1681 33.2392 54.4291C33.3593 54.2578 33.3593 54.2578 33.5653 54.096C33.8475 53.7462 33.8042 53.4187 33.7927 52.9821C33.7913 52.8955 33.7898 52.8088 33.7883 52.7195C33.726 50.477 33.0789 48.3691 32.1697 46.3335C32.0723 46.1125 31.982 45.8891 31.8945 45.664C31.7678 45.6907 31.7678 45.6907 31.6385 45.7178C30.3975 45.9655 29.1484 46.1153 27.8906 46.25C27.7692 46.2632 27.6479 46.2764 27.5228 46.29C24.2067 46.5858 20.0936 46.518 17.3437 44.3945C16.4054 43.5918 15.8104 42.6101 15.6836 41.3672C15.5099 39.0925 16.7486 36.9779 18.1657 35.2957C18.7683 34.5997 19.4064 33.9354 20.0521 33.2796C20.1062 33.2247 20.1603 33.1697 20.2161 33.1131C20.3711 32.9687 20.3711 32.9687 20.664 32.7734C20.537 32.492 20.4043 32.2962 20.1815 32.0833C20.1249 32.0284 20.0684 31.9736 20.0101 31.917C19.9499 31.8592 19.8898 31.8014 19.8278 31.7419C19.2481 31.1726 18.7146 30.5896 18.2226 29.9414C18.1839 29.8911 18.1452 29.8409 18.1053 29.7891C16.7817 28.0596 15.732 26.1272 15.8789 23.8867C16.0656 22.6333 16.6563 21.6578 17.6367 20.8593C19.0953 19.8441 20.7762 19.4138 22.5195 19.1992C22.623 19.1863 22.7264 19.1735 22.8331 19.1603C25.3037 18.9203 27.8186 19.1614 30.2569 19.567C30.3618 19.584 30.4666 19.6009 30.5746 19.6184C30.667 19.6341 30.7593 19.6497 30.8545 19.6658C31.2866 19.702 31.6063 19.6105 31.9754 19.3907C32.0445 19.3504 32.1137 19.3102 32.185 19.2687C32.2583 19.2256 32.3316 19.1825 32.4072 19.1382C37.4917 16.2447 43.659 16.5158 48.4961 19.7851ZM36.6796 19.1015C36.6006 19.1236 36.5216 19.1456 36.4402 19.1683C32.9568 20.1713 30.0965 22.4277 28.3151 25.5944C27.5964 26.925 27.1813 28.3611 26.914 29.8437C26.8859 29.9967 26.8859 29.9967 26.8572 30.1527C26.6575 31.9855 26.7178 33.9426 27.3046 35.7031C27.5306 35.8714 27.5306 35.8714 27.8154 36.0323C27.923 36.0958 28.0305 36.1593 28.1413 36.2248C28.2591 36.2931 28.377 36.3613 28.4948 36.4294C28.6161 36.5002 28.7373 36.571 28.8584 36.6419C31.5825 38.2292 34.3792 39.6833 37.2923 40.8922C37.6861 41.0559 38.066 41.2276 38.4413 41.4301C39.159 41.8028 39.6823 41.9236 40.4737 41.7008C40.9472 41.5409 41.4053 41.35 41.8644 41.153C42.1353 41.0384 42.4084 40.9295 42.6814 40.8201C45.6021 39.6476 48.4829 38.3313 51.1906 36.721C51.3573 36.6225 51.5253 36.5262 51.6943 36.4316C51.7819 36.3817 51.8695 36.3317 51.9598 36.2803C52.0785 36.2138 52.0785 36.2138 52.1996 36.146C52.5876 35.859 52.6798 35.4719 52.7929 35.0195C52.8218 34.9203 52.8506 34.8211 52.8803 34.7189C53.7072 31.2902 52.8401 27.6274 51.0351 24.6679C50.74 24.2185 50.4082 23.807 50.0586 23.3984C50.0172 23.349 49.9758 23.2996 49.9332 23.2487C48.9237 22.0502 47.7109 21.1394 46.3476 20.3711C46.2426 20.3119 46.1376 20.2527 46.0295 20.1918C45.1 19.6979 44.1392 19.3737 43.125 19.1015C43.0287 19.075 43.0287 19.075 42.9305 19.048C41.0431 18.5538 38.5552 18.5709 36.6796 19.1015ZM18.2028 22.521C17.6229 23.1614 17.4709 23.8161 17.4883 24.6652C17.5721 26.2581 18.5295 27.7427 19.4921 28.9648C19.557 29.0484 19.6218 29.132 19.6886 29.2181C20.1328 29.7764 20.6061 30.3037 21.0913 30.8264C21.1802 30.9225 21.1802 30.9225 21.271 31.0205C21.3272 31.0804 21.3835 31.1404 21.4415 31.2021C21.4916 31.2556 21.5418 31.3092 21.5934 31.3643C21.7526 31.526 21.7526 31.526 22.0312 31.6992C22.079 31.6587 22.1269 31.6181 22.1762 31.5764C22.8484 31.0223 23.5564 30.5266 24.2728 30.0317C24.4339 29.9203 24.5945 29.808 24.7543 29.6947C24.9147 29.583 25.0798 29.4782 25.2466 29.3764C25.5707 29.0304 25.626 28.6189 25.7299 28.1653C26.4122 25.462 27.758 23.2757 29.6484 21.25C26.9449 19.7475 20.441 20.426 18.2028 22.521ZM50.4492 21.4453C50.5036 21.5083 50.5036 21.5083 50.5591 21.5725C52.3246 23.6228 54.0213 26.0751 54.3898 28.831C54.4505 29.2755 54.496 29.5627 54.8635 29.8433C54.9935 29.9257 55.1254 30.005 55.2587 30.0818C55.4004 30.1707 55.5418 30.2601 55.6829 30.3499C55.7546 30.3947 55.8262 30.4395 55.9 30.4857C56.2394 30.7073 56.5544 30.9572 56.8701 31.2109C56.9538 31.2778 56.9538 31.2778 57.0392 31.3461C57.0916 31.3881 57.1441 31.4301 57.1981 31.4734C57.4197 31.6506 57.6428 31.8237 57.8711 31.9922C58.2526 31.8337 58.5311 31.5744 58.8293 31.2964C58.8815 31.2479 58.9338 31.1995 58.9876 31.1497C59.3936 30.769 59.762 30.3699 60.1171 29.9414C60.1899 29.8599 60.2627 29.7785 60.3376 29.6946C61.538 28.323 62.7062 26.6311 62.6837 24.7419C62.5966 23.8884 62.2325 23.1855 61.5702 22.6427C58.5574 20.3916 53.9337 20.9412 50.4492 21.4453ZM24.3933 31.7724C24.3318 31.8157 24.2703 31.859 24.2069 31.9037C23.8765 32.1394 23.5781 32.3767 23.3007 32.6758C24.2367 33.6636 24.2367 33.6636 25.3515 34.2383C25.2885 32.7709 25.2885 32.7709 25.1562 31.3086C24.9052 31.3086 24.6003 31.6243 24.3933 31.7724ZM54.7461 31.6992C54.6494 32.666 54.5527 33.6328 54.4531 34.6289C55.0019 34.324 55.4786 34.0563 55.9729 33.6889C56.0737 33.6152 56.1745 33.5414 56.2784 33.4654C56.3528 33.3982 56.4272 33.3309 56.5039 33.2617C56.5367 32.9693 56.5367 32.9693 56.3604 32.8112C55.6256 32.0842 55.6256 32.0842 54.7461 31.6992ZM21.4575 34.1967C21.4105 34.2431 21.3635 34.2895 21.3151 34.3373C21.1625 34.4888 21.0108 34.6411 20.8593 34.7937C20.8079 34.8453 20.7565 34.8969 20.7035 34.9501C19.9787 35.6798 19.2788 36.4027 18.7109 37.2656C18.6725 37.3239 18.6341 37.3822 18.5945 37.4423C17.8074 38.6532 17.2024 39.8842 17.3437 41.3672C17.6074 42.4055 18.1979 43.0086 19.0962 43.5515C21.0163 44.5778 23.1578 44.7282 25.2905 44.7241C25.4189 44.7242 25.4189 44.7242 25.5499 44.7243C26.8093 44.723 28.0501 44.655 29.3005 44.5044C29.3721 44.4959 29.4437 44.4874 29.5175 44.4786C30.282 44.4368 30.282 44.4368 30.9179 44.1015C30.4729 43.4638 30.0068 42.8695 29.4809 42.2968C28.3636 41.0648 27.0959 39.5414 26.5799 37.929C26.1872 36.7253 25.5713 36.2412 24.5203 35.5714C24.1002 35.2926 23.708 34.9785 23.3129 34.6655C23.1688 34.5523 23.0246 34.4391 22.8804 34.326C22.82 34.2783 22.7595 34.2307 22.6973 34.1816C22.6386 34.1358 22.5799 34.0901 22.5195 34.0429C22.4516 33.9888 22.3838 33.9346 22.3138 33.8788C21.9138 33.6002 21.7577 33.8994 21.4575 34.1967ZM57.6147 34.4641C57.2264 34.8119 56.8253 35.1316 56.4062 35.4406C56.3446 35.4865 56.283 35.5324 56.2196 35.5796C55.8861 35.8231 55.5509 36.0426 55.1889 36.2417C54.0862 36.8601 53.6993 37.4354 53.2704 38.6095C52.6893 40.0723 51.5599 41.3233 50.4919 42.4494C50.1287 42.8384 49.8064 43.2474 49.497 43.6804C49.455 43.7391 49.4129 43.7977 49.3696 43.8582C49.1505 44.1477 49.1505 44.1477 49.082 44.4922C52.8659 45.126 58.0166 45.9604 61.4008 43.5625C62.0398 43.0562 62.4025 42.5048 62.5074 41.6887C62.6427 39.297 60.965 37.2569 59.4599 35.5642C59.0145 35.072 58.5556 34.5897 58.0664 34.1406C57.881 34.1406 57.7419 34.3452 57.6147 34.4641ZM28.5742 38.2422C28.7067 38.7184 28.9194 39.0863 29.2089 39.4812C29.2521 39.5408 29.2952 39.6003 29.3396 39.6617C29.6921 40.1403 30.0792 40.5784 30.4853 41.0124C30.9835 41.5522 31.4378 42.1295 31.885 42.7118C31.9332 42.7743 31.9814 42.8368 32.0311 42.9011C32.1256 43.0239 32.2195 43.1471 32.3127 43.2708C32.5783 43.6211 32.5783 43.6211 32.9687 43.8086C33.2536 43.751 33.5294 43.6859 33.8098 43.6113C33.8926 43.59 33.9753 43.5686 34.0606 43.5466C34.2357 43.5013 34.4108 43.4555 34.5858 43.4094C34.8524 43.3392 35.1193 43.27 35.3863 43.2011C35.5566 43.1568 35.7269 43.1125 35.8973 43.0681C35.9766 43.0475 36.056 43.0268 36.1378 43.0055C36.5518 42.8963 36.9586 42.7777 37.3632 42.6367C37.0522 42.3806 36.7384 42.2299 36.3676 42.0744C36.2436 42.0217 36.1197 41.969 35.9957 41.9162C35.9303 41.8885 35.8648 41.8608 35.7973 41.8323C33.4562 40.8381 31.1505 39.7325 28.9705 38.4188C28.7157 38.2339 28.7157 38.2339 28.5742 38.2422ZM51.2304 38.5351C51.1285 38.5932 51.0265 38.6512 50.9214 38.711C48.2347 40.2293 45.4172 41.5227 42.539 42.6367C42.539 42.7011 42.539 42.7656 42.539 42.832C44.411 43.3999 44.411 43.3999 46.2988 43.9123C46.3791 43.9334 46.4595 43.9544 46.5423 43.9761C46.9825 44.0892 46.9825 44.0892 47.4218 44.0039C47.5819 43.7664 47.729 43.5303 47.8735 43.2837C48.3283 42.5332 48.8369 41.8699 49.4155 41.2094C49.5651 41.0385 49.7143 40.8673 49.8632 40.6958C49.9126 40.639 49.962 40.5822 50.0128 40.5236C50.4984 39.9568 50.9181 39.3537 51.3281 38.7304C51.2797 38.6338 51.2797 38.6338 51.2304 38.5351ZM38.8533 43.8524C38.6766 43.9036 38.5 43.9548 38.3234 44.006C38.0477 44.0864 37.772 44.1669 37.4964 44.2476C36.1906 44.6292 34.881 44.9704 33.5546 45.2734C33.6316 45.7023 33.7805 46.0646 33.9636 46.4575C34.9279 48.6105 35.2922 50.8485 35.5078 53.1836C36.2168 53.1836 36.9257 53.1836 37.6562 53.1836C37.6581 52.9963 37.6601 52.809 37.6621 52.616C37.6687 51.997 37.6762 51.3781 37.6843 50.7591C37.6892 50.3839 37.6937 50.0086 37.6974 49.6333C37.701 49.2711 37.7055 48.9089 37.7107 48.5468C37.7125 48.4086 37.714 48.2705 37.7151 48.1323C37.7168 47.9388 37.7197 47.7452 37.7227 47.5516C37.724 47.4415 37.7253 47.3313 37.7267 47.2178C37.7534 46.9387 37.7953 46.7751 37.9492 46.5429C38.247 46.394 38.5002 46.4223 38.8281 46.4453C39.0335 46.5959 39.1055 46.7071 39.2187 46.9336C39.2305 47.132 39.236 47.3307 39.2388 47.5295C39.2417 47.7171 39.2417 47.7171 39.2447 47.9086C39.2463 48.0457 39.248 48.1828 39.2496 48.3198C39.2516 48.4597 39.2537 48.5995 39.2558 48.7394C39.2612 49.1077 39.266 49.4759 39.2707 49.8442C39.2756 50.22 39.281 50.5957 39.2864 50.9714C39.2969 51.7088 39.3068 52.4462 39.3164 53.1836C39.9609 53.1836 40.6054 53.1836 41.2695 53.1836C41.2714 53.0086 41.2734 52.8337 41.2754 52.6534C41.282 52.0746 41.2895 51.4958 41.2976 50.917C41.3024 50.5661 41.307 50.2153 41.3107 49.8644C41.3143 49.5256 41.3188 49.1869 41.324 48.8481C41.3267 48.6564 41.3284 48.4646 41.3301 48.2729C41.3321 48.1556 41.334 48.0383 41.336 47.9175C41.3373 47.8145 41.3386 47.7115 41.3399 47.6054C41.3683 47.312 41.4296 47.0984 41.5625 46.8359C41.8661 46.6841 42.21 46.6672 42.539 46.7383C42.8462 47.0543 42.8698 47.297 42.8742 47.729C42.8761 47.8502 42.8781 47.9714 42.8801 48.0963C42.8807 48.228 42.8814 48.3597 42.882 48.4915C42.8836 48.6267 42.8854 48.7619 42.8873 48.8971C42.8919 49.2522 42.8948 49.6073 42.8974 49.9624C42.9003 50.3251 42.9048 50.6877 42.9092 51.0504C42.9176 51.7614 42.9241 52.4725 42.9296 53.1836C43.5097 53.1836 44.0898 53.1836 44.6875 53.1836C44.6959 53.0557 44.7043 52.9278 44.713 52.796C44.8806 50.5195 45.2861 48.166 46.3224 46.1073C46.4669 45.8617 46.4669 45.8617 46.4453 45.5664C46.3567 45.5431 46.2682 45.5198 46.177 45.4957C45.2809 45.2585 44.3878 45.0122 43.4973 44.7546C43.4323 44.7359 43.3673 44.7171 43.3004 44.6978C42.3786 44.4313 41.4668 44.1445 40.5664 43.8117C39.9035 43.5679 39.5146 43.6575 38.8533 43.8524Z" fill="#173B6F"/>
<path d="M41.9653 20.6946C42.0322 20.7061 42.0992 20.7176 42.1681 20.7294C42.6211 20.8162 43.0083 20.9455 43.4179 21.1524C43.659 21.514 43.6306 21.6934 43.6193 22.1228C43.6019 22.6709 43.6019 22.6709 43.7109 23.2032C44.2694 23.1888 44.5437 22.9282 44.9373 22.568C45.2712 22.3634 45.4739 22.3661 45.8593 22.4219C46.0862 22.5759 46.2499 22.7072 46.4391 22.898C46.4896 22.9468 46.54 22.9956 46.592 23.0458C47.4042 23.8461 48.362 24.8768 48.5632 26.0291C48.4535 26.5178 48.1799 26.7609 47.8002 27.0606C47.5133 27.3101 47.4458 27.4454 47.3242 27.793C47.4313 27.8085 47.5384 27.824 47.6488 27.8399C47.7908 27.8628 47.9329 27.8859 48.0749 27.909C48.1453 27.9188 48.2158 27.9287 48.2883 27.9389C48.6378 27.998 48.8731 28.0776 49.1785 28.2653C49.4879 28.7519 49.4388 29.2246 49.4238 29.7889C49.4213 29.9598 49.4213 29.9598 49.4187 30.1342C49.3939 31.1571 49.3239 32.1669 48.789 33.0664C48.442 33.3556 47.9724 33.2832 47.5439 33.274C47.4665 33.2731 47.389 33.2722 47.3093 33.2713C47.1189 33.269 46.9286 33.2655 46.7382 33.2618C46.8587 33.891 46.8587 33.891 47.2387 34.3848C47.4725 34.6423 47.522 34.7366 47.611 35.0928C47.5384 35.9293 46.6509 36.5931 46.0607 37.1009C44.5944 38.2724 44.5944 38.2724 43.8085 38.2422C43.3561 38.0206 43.0764 37.7039 42.7728 37.3133C42.633 37.1409 42.633 37.1409 42.3437 37.0703C42.1359 37.4226 42.0364 37.6985 42.0141 38.1018C41.9851 38.4595 41.958 38.5289 41.7211 38.8282C40.994 39.3822 39.6596 39.1879 38.7902 39.0967C38.1137 38.9975 37.4877 38.8367 36.8749 38.5352C36.6373 38.1787 36.6606 37.9202 36.6735 37.5098C36.6907 36.9905 36.6907 36.9905 36.582 36.4844C36.0225 36.4988 35.7433 36.7618 35.346 37.1196C35.0459 37.3111 34.8818 37.3173 34.5312 37.2657C33.3795 36.591 32.1052 35.1365 31.7381 33.8347C31.7236 33.6585 31.7236 33.6585 31.7968 33.3594C32.0043 33.1153 32.0043 33.1153 32.2851 32.8711C32.393 32.755 32.4987 32.6369 32.6025 32.5171C32.6513 32.4615 32.7002 32.4058 32.7505 32.3485C32.8913 32.1781 32.8913 32.1781 32.9687 31.8946C32.8534 31.8779 32.7381 31.8613 32.6193 31.8442C32.4672 31.8204 32.3151 31.7965 32.163 31.7725C32.0871 31.7618 32.0112 31.7511 31.933 31.7401C31.4779 31.6662 31.2083 31.5971 30.9179 31.211C30.408 30.1911 30.883 28.4351 31.2109 27.4024C31.3731 26.9759 31.5042 26.686 31.8945 26.4258C32.0981 26.3947 32.0981 26.3947 32.329 26.3854C32.4117 26.3816 32.4945 26.3778 32.5798 26.3739C32.6658 26.3709 32.7519 26.3679 32.8405 26.3648C32.9713 26.3591 32.9713 26.3591 33.1047 26.3533C33.3198 26.3441 33.5348 26.3358 33.7499 26.3282C33.6754 26.1711 33.6 26.0146 33.5241 25.8582C33.4822 25.7709 33.4403 25.6837 33.3971 25.5938C33.2762 25.3519 33.2762 25.3519 33.1041 25.194C32.8661 24.956 32.8822 24.6986 32.871 24.375C33.5038 23.1431 34.9695 21.8859 36.289 21.4453C36.6369 21.4026 36.6369 21.4026 36.9726 21.543C37.218 21.7834 37.438 22.0332 37.6547 22.2998C37.8392 22.5424 37.8392 22.5424 38.1445 22.6172C38.4125 22.2152 38.4104 21.8344 38.4611 21.3603C38.547 21.0054 38.6338 20.8793 38.9257 20.6641C39.8417 20.3672 41.0327 20.5321 41.9653 20.6946ZM36.6796 27.1094C35.9448 28.1164 35.5517 29.2542 35.7446 30.5037C36.0073 31.7381 36.625 32.7224 37.6562 33.4571C38.7018 34.0588 39.7685 34.2862 40.9521 34.0369C42.1411 33.7141 43.0546 33.0559 43.6865 31.9995C44.2986 30.8415 44.4422 29.8363 44.0985 28.5697C43.739 27.4739 43.0026 26.6128 41.9973 26.0562C40.1006 25.1169 38.1064 25.5698 36.6796 27.1094Z" fill="#173B6F"/>
</svg>
