<svg width="80" height="80" viewBox="0 0 80 80" fill="none" xmlns="http://www.w3.org/2000/svg">
<rect width="80" height="80" rx="5" fill="#173B6F" fill-opacity="0.15"/>
<path d="M46.3477 44.1992C46.3691 44.2747 46.3905 44.3503 46.4125 44.4281C46.7238 45.4506 47.0881 46.0529 48.0029 46.6185C48.7885 46.9343 49.6308 46.9631 50.4676 46.9595C50.5675 46.9597 50.6675 46.9599 50.7705 46.9601C50.9803 46.9602 51.19 46.9599 51.3998 46.9591C51.718 46.958 52.0361 46.9591 52.3543 46.9603C52.5595 46.9602 52.7648 46.9599 52.97 46.9595C53.0636 46.9599 53.1572 46.9603 53.2537 46.9607C54.3067 46.9536 55.2793 46.84 56.1133 46.1523C56.6425 45.5743 56.9202 44.9587 57.0899 44.1992C58.8168 44.7016 60.4222 46.5555 61.3009 48.0555C61.8804 49.1386 62.2872 50.2276 62.5586 51.4258C62.5847 51.535 62.5847 51.535 62.6113 51.6465C62.6655 51.9691 62.6672 52.2754 62.6658 52.6026C62.6656 52.7204 62.6653 52.8381 62.6651 52.9594C62.6642 53.1079 62.6633 53.2564 62.6624 53.4094C62.6604 53.8828 62.6584 54.3561 62.6563 54.8438C61.5606 54.8438 60.4649 54.8438 59.336 54.8438C59.3511 54.2244 59.3511 54.2244 59.3665 53.5925C59.3815 51.6486 58.9568 49.8785 57.7735 48.3008C57.419 48.5586 57.0645 48.8164 56.6993 49.082C56.7511 49.166 56.803 49.25 56.8564 49.3365C58.5797 52.1944 57.9358 55.216 57.386 58.3243C57.3088 58.7636 57.2341 59.2032 57.1591 59.6428C57.0496 60.2824 56.9394 60.9218 56.8269 61.5608C56.8154 61.6268 56.8038 61.6928 56.792 61.7607C56.7384 62.0633 56.6762 62.3578 56.6016 62.6562C53.3789 62.6562 50.1563 62.6562 46.836 62.6562C46.6104 61.3672 46.3848 60.0781 46.1524 58.75C46.0453 58.1595 46.0453 58.1595 45.9361 57.5571C45.419 54.6754 45.0491 52.1705 46.4835 49.4891C46.6554 49.2085 46.6554 49.2085 46.6407 48.9844C46.4213 48.8069 46.4213 48.8069 46.1524 48.6304C46.0617 48.5687 45.9711 48.507 45.8777 48.4435C45.8072 48.3964 45.7367 48.3493 45.6641 48.3008C44.5361 49.9059 44.0435 51.6004 44.0833 53.5559C44.0893 53.9809 44.0954 54.4059 44.1016 54.8438C43.0059 54.8438 41.9102 54.8438 40.7813 54.8438C40.7178 51.3053 41.317 48.5163 43.8391 45.8838C45.5705 44.1992 45.5705 44.1992 46.3477 44.1992Z" fill="#173B6F"/>
<path d="M22.6108 17.3186C22.7059 17.3179 22.8009 17.3173 22.8989 17.3167C23.0025 17.317 23.1062 17.3173 23.213 17.3176C23.3238 17.3171 23.4345 17.3167 23.5486 17.3162C23.9204 17.315 24.2922 17.3152 24.6641 17.3153C24.9304 17.3148 25.1966 17.3141 25.4629 17.3133C26.1116 17.3117 26.7603 17.3112 27.4091 17.3111C27.9364 17.311 28.4638 17.3106 28.9912 17.31C30.4866 17.3082 31.9821 17.3073 33.4776 17.3075C33.5582 17.3075 33.6388 17.3075 33.7219 17.3075C33.8026 17.3075 33.8833 17.3075 33.9665 17.3075C35.2744 17.3076 36.5823 17.3057 37.8902 17.303C39.2334 17.3002 40.5766 17.2988 41.9199 17.299C42.6739 17.2991 43.4279 17.2985 44.1819 17.2964C44.8239 17.2946 45.4659 17.2942 46.1079 17.2955C46.4353 17.2962 46.7627 17.296 47.0902 17.2945C47.4455 17.293 47.8007 17.2939 48.156 17.2954C48.259 17.2944 48.3621 17.2934 48.4682 17.2924C49.1988 17.2992 49.7231 17.4449 50.281 17.9262C50.3345 17.9898 50.388 18.0533 50.4431 18.1188C50.4984 18.1822 50.5536 18.2455 50.6106 18.3107C50.7594 18.5424 50.8026 18.7329 50.8398 19.0038C50.7839 19.0161 50.7279 19.0283 50.6702 19.0409C48.0387 19.6228 45.6242 20.6944 44.0775 23.0234C43.0292 24.7207 42.5852 26.2682 42.4414 28.2812C40.3467 28.2812 38.252 28.2812 36.0938 28.2812C36.0938 29.2802 36.0938 30.2792 36.0938 31.3085C35.9961 31.4062 35.9961 31.4062 35.7459 31.4508C35.2516 31.3851 34.9945 31.1133 34.6289 30.7897C34.4816 30.6638 34.3343 30.5381 34.1868 30.4125C34.1135 30.3494 34.0403 30.2864 33.9648 30.2215C33.6535 29.957 33.3337 29.7041 33.0115 29.4531C32.9593 29.4121 32.9071 29.3712 32.8534 29.329C32.7541 29.2513 32.6542 29.1744 32.5537 29.0983C32.4376 29.0076 32.3244 28.913 32.2142 28.8152C31.6974 28.3787 31.3217 28.2953 30.6557 28.3096C30.5645 28.3092 30.4732 28.3087 30.3792 28.3083C30.0796 28.3076 29.7802 28.3108 29.4806 28.314C29.2712 28.3139 29.0618 28.3135 28.8524 28.3127C28.3024 28.3114 27.7524 28.3133 27.2023 28.3161C26.322 28.3205 25.4417 28.3221 24.5614 28.3201C24.2548 28.3201 23.9483 28.3226 23.6416 28.3253C23.4527 28.3254 23.2637 28.3253 23.0748 28.3252C22.9902 28.3266 22.9057 28.328 22.8186 28.3295C22.1461 28.3252 21.6374 28.1445 21.1287 27.6987C21.0761 27.6351 21.0235 27.5715 20.9692 27.506C20.9151 27.4427 20.861 27.3794 20.8052 27.3142C20.4871 26.8525 20.4397 26.4281 20.4404 25.8788C20.4397 25.8057 20.4391 25.7325 20.4384 25.6572C20.4365 25.4163 20.4362 25.1755 20.4359 24.9346C20.4353 24.7663 20.4347 24.5981 20.434 24.4299C20.4328 24.0775 20.4324 23.7251 20.4326 23.3727C20.4326 22.9225 20.4299 22.4724 20.4266 22.0222C20.4244 21.6747 20.424 21.3273 20.4241 20.9799C20.4239 20.814 20.423 20.6481 20.4215 20.4822C20.407 18.7388 20.407 18.7388 21.0513 18.0036C21.1148 17.951 21.1784 17.8984 21.2439 17.8442C21.3072 17.79 21.3705 17.7359 21.4358 17.6801C21.8133 17.42 22.1546 17.3193 22.6108 17.3186ZM31.0156 18.9062C30.3432 20.1737 29.688 21.4482 29.0475 22.7321C28.9008 23.0259 28.7538 23.3195 28.6066 23.6131C28.5132 23.8002 28.4197 23.9872 28.3263 24.1743C28.2604 24.3058 28.2604 24.3058 28.1931 24.4399C28.1533 24.52 28.1134 24.6 28.0724 24.6825C28.0371 24.753 28.0019 24.8235 27.9656 24.8962C27.8838 25.0435 27.8838 25.0435 27.8906 25.1562C29.0508 25.1562 30.2109 25.1562 31.4063 25.1562C31.4063 25.6718 31.4063 26.1874 31.4063 26.7187C31.9219 26.7187 32.4375 26.7187 32.9688 26.7187C32.9688 26.2031 32.9688 25.6874 32.9688 25.1562C33.4844 25.1562 34 25.1562 34.5313 25.1562C34.5313 24.6406 34.5313 24.1249 34.5313 23.5937C34.0156 23.5937 33.5 23.5937 32.9688 23.5937C32.9688 22.0468 32.9688 20.4999 32.9688 18.9062C32.3242 18.9062 31.6797 18.9062 31.0156 18.9062ZM22.4398 20.0105C22.0068 20.6293 22.0313 21.2966 22.0313 22.0312C22.5469 22.0312 23.0625 22.0312 23.5938 22.0312C23.6038 21.8439 23.6139 21.6566 23.6243 21.4636C23.6538 20.9134 23.6538 20.9134 23.8177 20.6774C24.0188 20.5435 24.1347 20.527 24.375 20.5297C24.4747 20.5286 24.4747 20.5286 24.5764 20.5274C24.8253 20.5786 24.9007 20.6619 25.0586 20.8593C25.1383 21.1941 25.1271 21.4994 25.0586 21.8359C24.8819 22.1202 24.6518 22.3147 24.3964 22.5282C24.2583 22.6544 24.1203 22.7808 23.9825 22.9072C23.7648 23.1013 23.5461 23.2937 23.3247 23.4835C23.11 23.6694 22.9018 23.8611 22.6935 24.0541C22.6273 24.1077 22.561 24.1613 22.4928 24.2165C22.2641 24.4167 22.2641 24.4167 22.0313 24.8632C22.0313 25.4755 22.0313 26.0878 22.0313 26.7187C23.5781 26.7187 25.125 26.7187 26.7188 26.7187C26.7188 26.2031 26.7188 25.6874 26.7188 25.1562C25.3652 25.1079 25.3652 25.1079 23.9844 25.0585C24.142 24.9055 24.2996 24.7524 24.462 24.5947C24.6157 24.444 24.7692 24.2929 24.9226 24.1418C25.0285 24.0379 25.1347 23.9342 25.2414 23.831C26.2958 22.8205 26.2958 22.8205 26.7222 21.4525C26.7099 20.727 26.4935 20.1432 25.9726 19.626C25.3538 19.0678 24.8376 18.9522 24.0065 18.9672C23.3067 19.0486 22.8656 19.4762 22.4398 20.0105ZM36.3501 25.4125C36.1438 25.714 36.1316 25.8718 36.1914 26.2304C36.3379 26.4746 36.3379 26.4746 36.582 26.621C36.9406 26.6808 37.0985 26.6686 37.3999 26.4623C37.6062 26.1609 37.6184 26.003 37.5586 25.6445C37.4121 25.4003 37.4121 25.4003 37.168 25.2538C36.8094 25.1941 36.6516 25.2063 36.3501 25.4125ZM39.4751 25.4125C39.2688 25.714 39.2566 25.8718 39.3164 26.2304C39.4629 26.4746 39.4629 26.4746 39.707 26.621C40.0656 26.6808 40.2235 26.6686 40.5249 26.4623C40.7312 26.1609 40.7434 26.003 40.6836 25.6445C40.5371 25.4003 40.5371 25.4003 40.293 25.2538C39.9344 25.1941 39.7766 25.2063 39.4751 25.4125Z" fill="#173B6F"/>
<path d="M18.3004 45.4218C18.4734 45.421 18.4734 45.421 18.6499 45.4202C18.7766 45.4216 18.9033 45.423 19.0338 45.4244C19.1707 45.4245 19.3076 45.4245 19.4446 45.4243C19.8112 45.4242 20.1778 45.4265 20.5444 45.4292C20.8884 45.4314 21.2325 45.4315 21.5765 45.4318C22.5826 45.4339 23.5887 45.4393 24.5947 45.4444C26.8426 45.4524 29.0904 45.4605 31.4063 45.4688C31.4063 50.1094 31.4063 54.75 31.4063 59.5313C26.7656 59.5313 22.125 59.5313 17.3438 59.5313C17.3357 57.2835 17.3277 55.0357 17.3194 52.7197C17.3158 52.0095 17.3122 51.2993 17.3086 50.5676C17.3068 49.7015 17.3068 49.7015 17.3065 49.2963C17.3061 49.0128 17.3047 48.7293 17.3025 48.4458C17.2999 48.0843 17.299 47.7228 17.2996 47.3613C17.2994 47.1658 17.2973 46.9704 17.2952 46.7749C17.2957 46.6596 17.2962 46.5442 17.2968 46.4254C17.2964 46.3249 17.2961 46.2245 17.2957 46.121C17.4023 45.5408 17.7561 45.4198 18.3004 45.4218ZM23.0689 50.1196C22.8536 50.5667 22.8323 50.9381 22.9102 51.4258C23.1377 51.8983 23.4142 52.1749 23.8867 52.4024C24.3745 52.4802 24.7459 52.4589 25.1929 52.2437C25.5429 51.927 25.8003 51.6734 25.8772 51.1916C25.9023 50.6365 25.8336 50.2882 25.4492 49.8633C25.0244 49.4789 24.676 49.4103 24.121 49.4353C23.6392 49.5122 23.3855 49.7696 23.0689 50.1196Z" fill="#173B6F"/>
<path d="M56.5222 22.0007C56.8264 22.2562 57.112 22.5213 57.3828 22.8124C57.4479 22.877 57.513 22.9416 57.58 23.0081C58.5424 24.0034 59.1036 25.1849 59.4336 26.5234C59.4509 26.5914 59.4682 26.6595 59.486 26.7296C59.5483 27.1185 59.5432 27.4993 59.5408 27.8925C59.5406 28.0182 59.5406 28.0182 59.5404 28.1466C59.5398 28.4132 59.5386 28.6798 59.5373 28.9465C59.5368 29.1277 59.5364 29.309 59.536 29.4903C59.5349 29.9336 59.5332 30.3769 59.5312 30.8203C59.0156 30.7558 58.5 30.6913 57.9687 30.6249C57.9639 30.466 57.9592 30.307 57.9542 30.1431C57.9469 29.9314 57.9395 29.7197 57.9321 29.508C57.9276 29.3514 57.9276 29.3514 57.923 29.1916C57.8884 28.2503 57.8507 27.3772 57.1467 26.679C56.6348 26.2264 56.1633 26.1101 55.4968 26.0229C55.2813 25.9947 55.0658 25.9665 54.8437 25.9374C54.8437 26.4531 54.8437 26.9687 54.8437 27.4999C55.029 27.4919 55.2143 27.4838 55.4053 27.4755C55.9513 27.4518 55.9513 27.4518 56.246 27.6724C56.415 27.9026 56.4594 28.0004 56.4551 28.2812C56.4566 28.3779 56.4566 28.3779 56.4581 28.4765C56.3798 28.7714 56.2607 28.8825 56.0156 29.0624C54.4473 29.3102 52.8125 28.7764 51.5234 27.8906C51.1042 27.5623 50.7258 27.1947 50.3515 26.8163C50.2226 26.6874 50.0937 26.5585 49.9609 26.4257C49.6387 26.6513 49.3164 26.8769 48.9844 27.1093C49.163 27.5629 49.163 27.5629 49.436 27.9211C49.5126 28.0077 49.5891 28.0943 49.668 28.1835C49.3396 28.4636 49.0055 28.5917 48.5998 28.7329C48.4821 28.7744 48.3644 28.8159 48.2432 28.8587C47.8031 28.9989 47.4088 29.075 46.9469 29.072C46.8171 29.0715 46.8171 29.0715 46.6847 29.071C46.5956 29.0702 46.5065 29.0694 46.4148 29.0685C46.3238 29.0681 46.2329 29.0677 46.1392 29.0672C45.9157 29.0661 45.6922 29.0643 45.4687 29.0624C45.4687 29.5781 45.4687 30.0937 45.4687 30.6249C45.1304 30.7216 45.1304 30.7216 44.7851 30.8203C44.624 30.872 44.4632 30.9247 44.303 30.9789C44.1899 31.0171 44.1899 31.0171 44.0745 31.056C43.9912 31.0843 43.9912 31.0843 43.9062 31.1132C43.8965 30.5559 43.8894 29.9987 43.8848 29.4413C43.8828 29.2524 43.8802 29.0635 43.8768 28.8745C43.8505 27.3835 43.9537 26.0716 44.6692 24.7289C44.7194 24.6316 44.7194 24.6316 44.7705 24.5324C45.0472 24.0104 45.375 23.552 45.7617 23.1054C45.82 23.028 45.8783 22.9506 45.9383 22.8708C46.7391 21.9216 47.8379 21.2943 48.9844 20.8593C49.0929 20.817 49.2014 20.7747 49.3132 20.7311C51.7322 19.9413 54.512 20.4738 56.5222 22.0007Z" fill="#173B6F"/>
<path d="M51.2305 29.2578C51.4045 29.3446 51.5784 29.4318 51.7493 29.5245C53.3092 30.3687 54.5406 30.4297 56.4063 30.4297C56.4063 32.5567 56.4063 34.6836 56.4063 36.875C55.918 36.6797 55.4297 36.4844 54.9414 36.2891C55.0381 36.128 55.1348 35.9668 55.2344 35.8008C54.9443 35.5108 54.6543 35.2207 54.3555 34.9219C54.2668 35.0065 54.1782 35.0911 54.0869 35.1782C53.253 35.8773 52.4103 36.2201 51.3194 36.151C50.4183 36.016 49.7293 35.5397 49.082 34.9219C48.792 35.2119 48.502 35.502 48.2031 35.8008C48.6694 36.4183 49.1985 36.7788 49.8633 37.168C49.8255 37.2212 49.7878 37.2745 49.7488 37.3294C49.3956 37.8409 49.1185 38.3491 48.8867 38.9258C48.2026 38.807 47.7108 38.1847 47.325 37.6437C47.0744 37.1784 47.007 36.7493 47.0091 36.2258C47.0091 36.0988 47.0091 35.9717 47.0091 35.8408C47.0101 35.7036 47.0111 35.5664 47.0122 35.4293C47.0125 35.2878 47.0128 35.1463 47.013 35.0048C47.0138 34.634 47.0157 34.2631 47.0178 33.8923C47.0198 33.5132 47.0207 33.1342 47.0217 32.7552C47.0238 32.0126 47.0271 31.27 47.0313 30.5274C47.1437 30.5019 47.2562 30.4765 47.3721 30.4503C47.522 30.4159 47.6718 30.3814 47.8217 30.3469C47.8955 30.3303 47.9694 30.3137 48.0455 30.2965C48.9496 30.0873 49.7626 29.7428 50.5434 29.2403C50.8194 29.1291 50.9473 29.1666 51.2305 29.2578ZM48.8501 31.6626C48.6438 31.9641 48.6316 32.1219 48.6914 32.4805C48.8379 32.7246 48.8379 32.7246 49.082 32.8711C49.4406 32.9309 49.5985 32.9187 49.8999 32.7124C50.1062 32.411 50.1184 32.2531 50.0586 31.8946C49.9121 31.6504 49.9121 31.6504 49.668 31.5039C49.3094 31.4442 49.1515 31.4564 48.8501 31.6626ZM53.5376 31.6626C53.3313 31.9641 53.3191 32.1219 53.3789 32.4805C53.5254 32.7246 53.5254 32.7246 53.7695 32.8711C54.1281 32.9309 54.286 32.9187 54.5874 32.7124C54.7937 32.411 54.8059 32.2531 54.7461 31.8946C54.5996 31.6504 54.5996 31.6504 54.3555 31.5039C53.9969 31.4442 53.8391 31.4564 53.5376 31.6626Z" fill="#173B6F"/>
<path d="M60.9961 34.5312C61.0283 34.5312 61.0606 34.5312 61.0938 34.5312C61.1037 35.193 61.1105 35.8548 61.1152 36.5167C61.1172 36.7414 61.1198 36.9662 61.1232 37.1909C61.128 37.5155 61.1302 37.8401 61.1319 38.1647C61.1339 38.2639 61.1359 38.363 61.138 38.4651C61.1384 39.5712 60.7845 40.4682 60.0195 41.2695C59.0202 42.2236 57.9677 42.4039 56.6218 42.3956C56.4851 42.3959 56.3484 42.3963 56.2116 42.3968C55.9271 42.3973 55.6426 42.3965 55.358 42.3947C54.9952 42.3924 54.6325 42.3937 54.2696 42.3961C53.988 42.3975 53.7065 42.397 53.4249 42.396C53.2911 42.3958 53.1574 42.3961 53.0237 42.397C52.1414 42.4017 51.5018 42.362 50.8162 41.7612C50.7636 41.6977 50.711 41.6341 50.6568 41.5686C50.6026 41.5053 50.5485 41.442 50.4927 41.3767C50.0553 40.7418 50.0904 40.0614 50.1563 39.3164C50.3204 38.6661 50.7875 38.2241 51.3281 37.8516C51.8886 37.5801 52.4506 37.6199 53.062 37.6201C53.2614 37.6196 53.4605 37.6161 53.6599 37.6124C54.5179 37.6098 55.0844 37.6587 55.7463 38.2388C55.7989 38.3023 55.8516 38.3659 55.9058 38.4314C55.987 38.5264 55.987 38.5264 56.0698 38.6233C56.3965 39.0975 56.4325 39.5147 56.4185 40.0793C56.4176 40.147 56.4167 40.2147 56.4158 40.2844C56.4135 40.45 56.41 40.6156 56.4063 40.7812C56.6711 40.7423 56.9354 40.7014 57.1997 40.6592C57.274 40.6485 57.3483 40.6378 57.4248 40.6268C58.207 40.4986 58.6782 40.1412 59.1406 39.5117C59.3793 39.0343 59.4392 38.5455 59.437 38.0164C59.4377 36.8078 59.4377 36.8078 59.6976 36.452C59.8964 36.3124 60.0962 36.2034 60.3125 36.0938C60.756 35.6153 60.9069 35.1708 60.9961 34.5312Z" fill="#173B6F"/>
<path d="M43.0274 35.8008C43.3241 35.9414 43.5896 36.1085 43.8635 36.2891C44.3196 36.5683 44.7212 36.6732 45.249 36.7361C45.4688 36.7773 45.4688 36.7773 45.6641 36.9727C45.7234 37.1503 45.7776 37.3297 45.8289 37.5098C46.2146 38.6954 47.0182 39.6165 48.1299 40.1831C48.4428 40.3293 48.7607 40.4595 49.082 40.5859C49.0595 40.7246 49.0346 40.8629 49.0088 41.001C48.9884 41.1165 48.9884 41.1165 48.9676 41.2344C48.8592 41.5433 48.7599 41.6569 48.4961 41.8555C48.1873 41.9813 47.8697 42.0726 47.5501 42.1667C46.8435 42.3881 46.1823 42.6397 45.5298 42.9907C45.4644 43.0259 45.399 43.061 45.3316 43.0972C45.0085 43.2768 44.7142 43.4695 44.4212 43.6949C44.1016 43.9063 44.1016 43.9063 43.8979 43.8824C43.6275 43.7756 43.5089 43.5997 43.3264 43.3752C42.9739 42.9667 42.6105 42.6434 42.179 42.3254C41.5638 41.8694 41.0241 41.4369 40.7813 40.6836C40.7013 39.9052 40.6823 39.1744 41.1719 38.5352C41.3832 38.2965 41.5998 38.0636 41.8177 37.831C42.3282 37.2344 42.7562 36.538 43.0274 35.8008Z" fill="#173B6F"/>
<path d="M59.043 56.4062C60.2354 56.4062 61.4277 56.4062 62.6562 56.4062C62.6562 58.4688 62.6562 60.5312 62.6562 62.6562C61.1416 62.6562 59.627 62.6562 58.0664 62.6562C58.1813 61.7369 58.2965 60.8275 58.4517 59.9158C58.4688 59.8139 58.4858 59.7121 58.5034 59.6072C58.5568 59.2889 58.6107 58.9706 58.6646 58.6523C58.7013 58.4336 58.7381 58.2149 58.7748 57.9962C58.8638 57.4662 58.9534 56.9362 59.043 56.4062Z" fill="#173B6F"/>
<path d="M17.3438 61.0938C22.0166 61.0938 26.6895 61.0938 31.5039 61.0938C31.6006 61.5771 31.6006 61.5771 31.6992 62.0703C31.7602 62.2669 31.8234 62.4631 31.8945 62.6562C30.1348 62.6654 28.3751 62.6723 26.6153 62.6765C25.7982 62.6785 24.9811 62.6812 24.164 62.6857C23.4518 62.6896 22.7396 62.6921 22.0274 62.693C21.6503 62.6935 21.2732 62.6947 20.8962 62.6976C20.5411 62.7002 20.186 62.701 19.8309 62.7004C19.6388 62.7006 19.4467 62.7027 19.2547 62.7049C18.2004 62.6999 18.2004 62.6999 17.7344 62.2656C17.3655 61.8191 17.3438 61.7037 17.3438 61.0938Z" fill="#173B6F"/>
<path d="M32.9688 45.4688C33.3555 45.4688 33.7422 45.4688 34.1406 45.4688C34.5312 45.8594 34.5312 45.8594 34.5793 46.121C34.579 46.2214 34.5786 46.3219 34.5782 46.4254C34.5788 46.541 34.5793 46.6565 34.5799 46.7756C34.5784 46.902 34.577 47.0285 34.5756 47.1588C34.5755 47.2935 34.5755 47.4283 34.5758 47.563C34.5759 47.9286 34.5736 48.2942 34.5709 48.6597C34.5684 49.0419 34.5682 49.424 34.5677 49.8062C34.5665 50.5297 34.5633 51.2532 34.5594 51.9767C34.555 52.8005 34.5529 53.6242 34.5509 54.448C34.5468 56.1424 34.5399 57.8368 34.5312 59.5312C34.0156 59.5312 33.5 59.5312 32.9688 59.5312C32.9688 54.8906 32.9688 50.25 32.9688 45.4688Z" fill="#173B6F"/>
<path d="M40.7812 56.4062C41.9736 56.4062 43.166 56.4062 44.3945 56.4062C44.522 57.1627 44.6494 57.9192 44.7762 58.6758C44.8352 59.0282 44.8944 59.3805 44.9539 59.7328C45.0111 60.0721 45.0681 60.4115 45.1248 60.7509C45.1571 60.9433 45.1896 61.1357 45.2222 61.328C45.2418 61.4453 45.2613 61.5626 45.2814 61.6834C45.3075 61.8382 45.3075 61.8382 45.334 61.9962C45.3711 62.2656 45.3711 62.2656 45.3711 62.6562C44.7266 62.6562 44.082 62.6562 43.418 62.6562C43.5146 62.3662 43.6113 62.0762 43.7109 61.7773C43.7658 61.4782 43.7658 61.4782 43.7823 61.2002C43.7895 61.1112 43.7967 61.0222 43.8041 60.9305C43.8154 60.7666 43.8154 60.7666 43.8269 60.5994C43.8531 60.2469 43.8793 59.8944 43.9062 59.5312C42.875 59.5312 41.8438 59.5312 40.7812 59.5312C40.7812 58.5 40.7812 57.4688 40.7812 56.4062Z" fill="#173B6F"/>
<path d="M49.7576 42.7439C50.0204 42.8578 50.243 43.0066 50.4798 43.1677C51.3543 43.7349 52.2387 43.8107 53.2599 43.8395C53.3282 43.8415 53.3964 43.8436 53.4668 43.8457C53.6816 43.852 53.8965 43.8578 54.1114 43.8635C54.2583 43.8678 54.4053 43.872 54.5523 43.8763C54.9099 43.8867 55.2675 43.8966 55.625 43.9063C55.6441 44.4321 55.5752 44.6655 55.2344 45.0781C54.676 45.5982 54.0613 45.5253 53.3301 45.5206C53.2023 45.521 53.0744 45.5214 52.9427 45.5218C52.6728 45.5224 52.403 45.5215 52.1331 45.5197C51.7882 45.5175 51.4436 45.5187 51.0988 45.5211C50.7683 45.5228 50.4379 45.5216 50.1074 45.5206C49.9841 45.5214 49.8608 45.5222 49.7338 45.523C48.6721 45.5117 48.6721 45.5117 48.2032 45.0781C47.7985 44.6309 47.775 44.2859 47.7988 43.7087C47.8033 43.645 47.8079 43.5813 47.8125 43.5156C47.9067 43.4838 48.0008 43.4519 48.0979 43.4191C48.2225 43.3761 48.3471 43.333 48.4717 43.2898C48.5336 43.269 48.5956 43.2481 48.6594 43.2267C48.9361 43.1301 49.1633 43.0403 49.3949 42.8584C49.5703 42.7344 49.5703 42.7344 49.7576 42.7439Z" fill="#173B6F"/>
<path d="M32.9688 61.0938C36.0625 61.0938 39.1562 61.0938 42.3438 61.0938C42.3438 61.7037 42.322 61.8191 41.9531 62.2656C41.5029 62.6269 41.202 62.7054 40.6287 62.7068C40.5571 62.7075 40.4856 62.7082 40.4119 62.7089C40.1769 62.7106 39.942 62.7095 39.707 62.7081C39.5429 62.7084 39.3787 62.7088 39.2146 62.7093C38.8711 62.7098 38.5277 62.709 38.1842 62.7072C37.7448 62.705 37.3055 62.7062 36.8662 62.7086C36.5273 62.71 36.1886 62.7095 35.8498 62.7085C35.6878 62.7083 35.5258 62.7086 35.3639 62.7095C35.1371 62.7105 34.9106 62.709 34.6838 62.7068C34.5551 62.7065 34.4263 62.7062 34.2936 62.7059C33.7605 62.6299 33.4649 62.3933 33.1274 61.9849C32.9688 61.6797 32.9688 61.6797 32.9688 61.0938Z" fill="#173B6F"/>
<path d="M57.9688 32.1875C58.3555 32.1875 58.7422 32.1875 59.1406 32.1875C59.5808 32.6277 59.5808 32.6277 59.5831 33.1152C59.5836 33.218 59.5841 33.3207 59.5847 33.4265C59.5831 33.5333 59.5816 33.64 59.5801 33.75C59.5816 33.8568 59.5831 33.9635 59.5847 34.0735C59.5842 34.1762 59.5836 34.2789 59.5831 34.3848C59.5827 34.4784 59.5822 34.5721 59.5818 34.6686C59.5312 34.9219 59.5312 34.9219 59.1406 35.3125C58.7539 35.3125 58.3672 35.3125 57.9688 35.3125C57.9688 34.2812 57.9688 33.25 57.9688 32.1875Z" fill="#173B6F"/>
<path d="M45.4688 32.1875C45.4688 33.2188 45.4688 34.25 45.4688 35.3125C44.8588 35.3125 44.7434 35.2907 44.2969 34.9219C43.9425 34.5489 43.876 34.2497 43.8574 33.75C43.876 33.2503 43.9425 32.9511 44.2969 32.5781C44.7434 32.2093 44.8588 32.1875 45.4688 32.1875Z" fill="#173B6F"/>
<path d="M31.3086 21.3477C31.3408 21.3477 31.373 21.3477 31.4062 21.3477C31.4062 22.0889 31.4062 22.8301 31.4062 23.5938C31.0518 23.5938 30.6973 23.5938 30.332 23.5938C30.4863 23.0853 30.7011 22.6188 30.9302 22.1411C30.9666 22.0646 31.0029 21.988 31.0404 21.9092C31.1295 21.7219 31.219 21.5347 31.3086 21.3477Z" fill="#173B6F"/>
</svg>
